<?xml version="1.0" encoding="UTF-8"?>
<svg width="89px" height="25px" viewBox="0 0 89 25" version="1.1" xmlns="http://www.w3.org/2000/svg" xmlns:xlink="http://www.w3.org/1999/xlink">
    <title>HBCU logo</title>
    <g id="Symbols" stroke="none" stroke-width="1" fill="none" fill-rule="evenodd">
        <g id="Global-Footer" transform="translate(-1193.000000, -355.000000)" fill="#FFFFFF" fill-rule="nonzero">
            <g id="HBCU-logo" transform="translate(1193.000000, 355.000000)">
                <path d="M65.725,3.45 C66.5875,4.3 66.625,4.3875 66.0625,5.425 C65.5,6.4625 64.75,7.7 64.075,8.825 C63.9242327,9.03773106 63.7570561,9.23834293 63.575,9.425 C63.1125,9.0625 62.7125,8.8 62.325,8.4875 C61.3509879,7.54766283 60.0946491,6.95463576 58.75,6.8 C57.0830254,6.55555967 55.416602,7.24710137 54.4125,8.6 C53.6042053,9.60773248 53.1830037,10.8713372 53.225,12.1625 C53.1661697,13.2230686 53.2974004,14.2856139 53.6125,15.3 C54.0828841,16.5460708 55.0309866,17.5529693 56.2465376,18.097386 C57.4620886,18.6418026 58.8446147,18.6787378 60.0875,18.2 C61.0467941,17.838091 61.9320937,17.3043697 62.7,16.625 C63.525,15.9375 63.5625,15.9375 64.1875,16.8375 C64.8125,17.7375 65.4375,18.6625 66,19.5875 C66.5625,20.5125 66.55,20.6625 65.875,21.4 C64.6986861,22.765539 63.1604044,23.7708386 61.4375,24.3 C58.7235875,25.1433355 55.7954989,24.9700495 53.2,23.8125 C49.9299041,22.3660284 47.5890586,19.3931545 46.95,15.875 C46.2399778,12.9773405 46.5125836,9.92591428 47.725,7.2 C49.1009944,3.68535905 52.253629,1.17660597 55.9875,0.625 C59.4993921,-0.0680534064 63.1292971,0.985038393 65.725,3.45 Z M87.3125,0.9 C87.9375,0.9 88.0625,1.0625 88.1125,1.6875 C88.1312502,2.05392696 88.1312502,2.42107304 88.1125,2.7875 C88.05,4.5 87.9625,6.2125 87.9125,7.925 C87.8375,11.175 87.8,14.425 87.7125,17.675 C87.7132746,18.4548839 87.6421402,19.2331782 87.5,20 C87.0874837,21.9012497 85.5840448,23.3752094 83.675,23.75 C82.1771065,24.2137133 80.6180289,24.4496818 79.05,24.45 C77.2600515,24.5332395 75.4662754,24.4663388 73.6875,24.25 C72.1952806,24.1185383 70.7866026,23.5041616 69.675,22.5 C69.0101828,21.8559098 68.5716672,21.0139599 68.425,20.1 C68.1646096,18.3289084 68.1100801,16.5336303 68.2625,14.75 C68.343703,13.2219114 68.343703,11.6905886 68.2625,10.1625 C68.2625,9.975 68.2625,9.8 68.2,9.6125 C68.125,7.25 68.0375,4.875 67.9625,2.5 C67.9375,2.025 67.95,1.6 67.95,0.975 C70.2785983,0.871035462 72.6118151,0.96302609 74.925,1.25 C75.031435,2.52695264 75.031435,3.81054736 74.925,5.0875 C74.925,5.35 74.85,5.6 74.85,5.85 L74.85,15.5 L74.85,15.5 C74.824604,16.1204716 74.8749759,16.7417246 75,17.35 C75.1870765,18.1966422 75.8697739,18.84471 76.725,18.9875 C77.5720024,19.2187284 78.4654976,19.2187284 79.3125,18.9875 C80.463919,18.7651101 81.3060086,17.7722761 81.3375,16.6 L81.3375,14.3 L81.3375,14.3 C81.3375,11.7 81.3375,9.1 81.2625,6.5 C81.2625,5.125 81.15,3.7375 81.125,2.35 C81.125,1.275 81.125,1.2125 82.175,1.1 C83.8875,0.9875 85.6,0.9375 87.3125,0.9 Z M26.9875,0.9875 L36.65,0.9875 L36.65,0.9875 C38.144068,1.02505137 39.623633,1.29061432 41.0375,1.775 C43.1166907,2.52777049 44.5506376,4.44297349 44.6875,6.65 C44.8677165,8.15776479 44.3894303,9.67006026 43.375,10.8 C43.125,11.125 42.875,11.4875 42.5,11.975 C43.7665593,12.6367901 44.6800388,13.8197461 45,15.2125 C46.0961869,18.7736959 44.1559386,22.5599519 40.625,23.75 C39.5128556,24.109737 38.3557505,24.3117044 37.1875,24.35 L27.2,24.35 C25.725,24.25 25.5375,24.1 25.6,22.65 L25.68125,21.121875 L25.68125,21.121875 L25.88125,18.065625 C25.9125,17.55625 25.940625,17.046875 25.9625,16.5375 C26.025,14.9375 26.0375,13.325 25.9625,11.7125 C25.9625,8.825 25.8125,5.95 25.7125,3.0625 C25.7125,2.6625 25.6,2.2625 25.575,1.8125 C25.55,1.3625 25.7,1.0625 26.225,0.9875 C26.4788225,0.968794989 26.7336775,0.968794989 26.9875,0.9875 Z M22.725,2.2 C22.725,5.1125 22.5,8.0375 22.5,10.95 C22.5,14.35 22.65,17.75 22.725,21.1375 L22.725,23.3375 L22.725,23.3375 C22.725,23.6875 22.65,23.975 22.2,24.0125 C20.3534403,24.2500256 18.4840597,24.2500256 16.6375,24.0125 C15.675,23.85 15.625,23.8375 15.6625,22.825 C15.6625,22.325 15.6825,21.825 15.7097,21.325 L15.8001,19.825 C15.8145,19.575 15.8275,19.325 15.8375,19.075 L15.8375,15.175 L15.8375,15.175 C15.2877284,15.0758319 14.7326053,15.0090501 14.175,14.975 L9.2375,14.975 L9.2375,14.975 C7.2375,14.975 7.325,15.325 7.425,17.05 C7.5125,18.4375 7.525,19.825 7.5625,21.2125 L7.5625,23.075 L7.5625,23.075 C7.5625,23.6875 7.45,23.85 6.85,23.95 C6.34719808,24.0473378 5.83702322,24.1017006 5.325,24.1125 C4.0125,24.1125 2.7,24.0375 1.3875,23.95 C0.725,23.95 0.5,23.625 0.525,22.95 C0.625,20.85 0.8,18.7375 0.8625,16.625 C0.925,14.5125 0.9375,12.4625 0.8625,10.375 C0.8625,7.75 0.7125,5.125 0.625,2.5 L0.625,2.2 C0.625,1.075 0.8625,0.95 2,1.025 C3.375,1.1 4.7625,1.025 6.15,1.025 L7.4625,1.025 C7.775,3.8375 7.075,6.5125 7.3375,9.325 C10.2262099,9.59747847 13.1333451,9.61421018 16.025,9.375 L16.025,5.1375 L16.025,5.1375 C16.025,4 15.9375,2.875 15.925,1.75 C15.925,1.2125 16.125,1.05 16.675,1.025 L21.0375,1.025 C21.1875,1.025 21.325,1.025 21.475,0.95 C22.6125,0.8625 22.8125,1.0375 22.725,2.2 Z M34.6741478,14.5880028 L34.675,14.6875 L33.425,14.6875 L33.425,14.6875 C32.7125,14.7625 32.5375,14.9625 32.5125,15.6625 C32.4875,16.3625 32.5125,17.2 32.5125,17.9625 C32.5125,18.725 32.65,19.1 33.5625,19.125 C34.6900127,19.1585343 35.8184247,19.1042034 36.9375,18.9625 C37.4214423,18.9632746 37.8820684,18.7547015 38.200747,18.3904974 C38.5194256,18.0262932 38.6650079,17.5420568 38.6,17.0625 C38.730106,16.0315511 38.034037,15.0778819 37.0125,14.8875 C36.440625,14.784375 35.8335938,14.7234375 35.2441406,14.6572266 L34.6741478,14.5880028 Z M33.3625,5.7125 C32.5875,5.7125 32.475,5.8625 32.4375,6.6125 C32.4,6.9375 32.4125,7.3 32.4125,7.6625 L32.425,7.6625 L32.425,8.9125 L32.425,8.9125 C32.425,9.55 32.575,9.7 33.2,9.75 C34.3599452,9.86712959 35.5314124,9.78254712 36.6625,9.5 C37.5104038,9.29049301 38.1013545,8.52329378 38.0875,7.65 C38.0320758,6.77915708 37.3756733,6.0654496 36.5125,5.9375 C35.4679065,5.7999464 34.4160392,5.72481302 33.3625,5.7125 Z"></path>
            </g>
        </g>
    </g>
</svg>