<?xml version="1.0" encoding="UTF-8"?><svg id="Layer_2" xmlns="http://www.w3.org/2000/svg" viewBox="0 0 106.11 76.03"><defs><style>.cls-1{fill:#fff;}.cls-2{fill:none;}</style></defs><g id="Layer_1-2"><g><g><path class="cls-1" d="M26.85,65.44c.77-1.14,1.62-2.07,2.48-2.65,.45-.29,.92-.48,1.33-.5,.34-.02,.77,.1,.73,.56-.06,.68-1.24,1.57-2.67,2.15l-.58,.23c-.41,.73-.75,1.43-1.09,2.05-1.65,3.1-4.13,4.33-6.91,4.51-1.13,.06-2.54-.06-3.49-.7-.79,.68-1.45,1.37-1.71,1.93-.06,.12-.11,.21-.17,.19s-.02-.19,0-.25c.21-.6,.81-1.35,1.6-2.07-.45-.39-.86-1.08-.79-1.95,.17-2.03,2.74-3.08,4.47-3.21,1.13-.08,2.84,.15,3.46,1.06,1.18-.48,2.2-.91,3.34-1.35Zm-6.8,.48c-1.5,.12-3.57,1.01-3.72,2.94-.04,.7,.17,1.31,.47,1.66,.17-.17,.43-.37,.66-.54,.41-.29,.75-.52,1.24-.83-.24-.21-.41-.48-.45-.79-.02-.1,0-.21,.06-.21,.04,0,.04,.08,.06,.16,.09,.29,.28,.52,.51,.7,.92-.54,1.92-1.03,2.87-1.45l1.41-.62c-.49-.93-2.07-1.12-3.12-1.03Zm-1.03,3.46c-.45,.29-.86,.56-1.28,.87l-.71,.54c.79,.74,2.16,.91,3.29,.83,2.27-.19,3.91-1.61,5.45-4.35,.32-.54,.62-1.06,.94-1.51v-.02c-1.05,.41-2.01,.81-3.06,1.28,.09,.19,.13,.41,.13,.64-.04,1.39-1.67,2.15-3.06,2.15-.51,0-1.22-.12-1.71-.44Zm4.28-1.7c0-.19-.02-.35-.06-.5l-1.43,.64c-.71,.33-1.67,.83-2.61,1.43,.47,.25,1.09,.35,1.5,.35,1.28,0,2.54-.75,2.61-1.93Zm5.34-2.88c1.18-.48,2.42-1.26,2.5-1.95,.04-.29-.21-.42-.49-.37-.3,.04-.64,.25-.98,.58-.38,.35-.98,1.18-1.41,1.88l.38-.15Z"/><path class="cls-1" d="M26.96,71.4c-.43,0-.62-.21-.62-.52,0-.27,.13-.54,.32-.81,.43-.62,1.05-1.26,1.6-1.8,.41-.39,.56-.52,.98-.52,.45,0,.49,.06,.23,.33-.38,.41-.73,.81-1.15,1.32-.36,.44-.62,.81-.75,1.02-.13,.23-.15,.37-.06,.45,.11,.08,.3,.04,.51-.06,.21-.1,.58-.33,.94-.62,.45-.35,.64-.52,.98-.83,.19-.17,.28-.25,.34-.19,.06,.06-.17,.27-.24,.33-.26,.25-.79,.7-1.22,1.03s-1.16,.85-1.88,.85Zm3.57-6.04c.13-.31,.45-.39,.86-.39,.3,0,.43,.23,.17,.54-.26,.33-.79,.56-1,.56-.11-.13-.13-.44-.02-.7Z"/><path class="cls-1" d="M33.78,70.85c.02-.46,.49-.97,.9-1.45l.9-1.02c.09-.1,.13-.23,.02-.29-.11-.06-.34,.02-.56,.13-.38,.19-.98,.54-1.67,1.05-.94,.7-1.45,1.18-2.39,1.88-.19,.15-.32,.19-.56,.19-.3,0-.45-.04-.28-.33,.15-.27,.6-.95,.94-1.39l.86-1.08c.15-.19,.19-.29,.15-.35-.06-.08-.19-.04-.32,.02-.26,.12-.58,.35-.83,.56l-.92,.79c-.21,.19-.3,.25-.36,.19-.04-.06,.06-.17,.32-.39,.26-.23,.73-.66,1.11-.95,.58-.44,1-.68,1.45-.68,.41,0,.53,.23,.53,.45,0,.25-.17,.52-.45,.89-.32,.42-.77,.97-1.01,1.31l.02,.02c.51-.41,1.22-1.01,1.97-1.55,.75-.54,1.69-1.12,2.33-1.12,.45,0,.71,.21,.66,.56-.06,.37-.51,.85-.86,1.26-.34,.39-.6,.74-.71,.91-.17,.27-.17,.39-.09,.45,.11,.08,.34,0,.51-.08,.26-.12,.56-.29,1.03-.64,.36-.27,.79-.64,1.03-.85,.17-.15,.24-.17,.28-.13,.04,.04-.02,.13-.17,.27-.19,.19-.83,.74-1.28,1.08-.43,.31-1.26,.83-1.92,.83-.41,0-.66-.19-.64-.54Z"/><path class="cls-1" d="M37.22,70.58c.04-.41,.28-.85,.62-1.24l-.02-.02-.36,.31c-.13,.1-.23,.17-.28,.13-.04-.06,.04-.15,.13-.23,.28-.25,.47-.39,.79-.62,.23-.17,.66-.44,1.03-.62,.73-.37,1.41-.64,1.97-.56,.49,.08,.66,.39,.58,.79-.09,.39-.45,.7-.73,.7-.36,0-.36-.29-.17-.6,.24-.39,.32-.64,.06-.68-.24-.04-.73,.27-1.33,.87-.58,.56-1.13,1.35-1.2,1.84-.04,.31,.15,.48,.49,.48,.28,0,1.03-.12,1.97-.74,.41-.27,.94-.7,1.28-.99,.13-.1,.19-.12,.24-.08,.04,.06-.04,.15-.17,.27-.28,.25-.88,.75-1.26,.99-.75,.5-1.75,.89-2.5,.89-.79,0-1.18-.31-1.13-.87Z"/><path class="cls-1" d="M45.31,70.37c.41-.27,.9-.64,1.3-.99,.13-.1,.19-.12,.23-.08,.04,.06-.04,.15-.17,.27-.28,.25-.96,.79-1.35,1.04-.9,.58-1.69,.85-2.42,.85-.79,0-1.15-.29-1.13-.83,.02-.41,.21-.79,.64-1.28l-.02-.02-.43,.37c-.11,.08-.17,.1-.21,.06-.04-.06,.04-.15,.13-.23,.28-.25,.47-.39,.79-.62,.23-.17,.64-.41,1.05-.62,.62-.31,1.26-.58,1.84-.58,.49,0,.66,.29,.64,.56-.04,.54-.73,.95-1.37,1.26-.62,.29-1.35,.54-1.84,.66-.09,.17-.13,.35-.13,.48,0,.31,.17,.48,.49,.48,.28,0,1-.15,1.95-.77Zm-.73-1.03c.53-.35,.86-.79,.88-1.08,.02-.19-.06-.29-.26-.29s-.51,.21-.94,.6c-.34,.31-.88,.97-1.13,1.39,.43-.1,1.01-.33,1.45-.62Z"/><path class="cls-1" d="M51.13,64.94c0-.23-.06-.33-.34-.31-.6,.04-1.16,.12-1.86,.12-.17-.12-.36-.45-.36-.56,0-.08,0-.1,.17-.15,1.73-.39,3.91-1.28,4.75-1.59,.06-.02,.11-.02,.17-.02,.11,0,.21,.04,.21,.16v8.16c0,3.15,.04,3.48,.13,3.68,.06,.21,.21,.29,2.74,.5-.02,.6-.13,.75-.3,.75h-3.08c-1.54,0-2.72,.12-4.94,.12-.19,0-.26-.02-.24-.12,.11-.39,.15-.56,.26-.58,.43-.1,1.43-.17,2.18-.29,.3-.04,.34-.19,.38-.39,.09-.44,.21-2.22,.19-4.16l-.06-5.32Z"/><path class="cls-1" d="M67.59,65.74c0,.62-.47,1.12-.83,1.43-.45,.48-.96,.87-1.48,1.3,1.88,1.01,2.84,1.88,2.84,3.6,0,1.43-.96,2.5-1.67,2.94-.83,.54-2.1,1.02-3.14,1.02-1.15,0-2.46-.27-3.25-.91-.98-.77-1.35-1.72-1.35-2.59,0-.62,.28-1.1,.6-1.45,.28-.29,1.37-1.06,2.1-1.61-1.39-.89-2.14-1.8-2.14-3.13,0-.97,.3-1.78,.92-2.38,.49-.48,1.13-.87,1.77-1.16,.6-.27,1.18-.37,1.67-.37,2.46,0,3.98,1.37,3.96,3.31Zm-1.75,7.43c0-.68-.3-1.31-.79-1.78-.75-.73-1.69-1.16-2.12-1.3-.36-.08-.71-.15-.98,0-.45,.23-.9,.97-.9,1.92,0,2.01,1.65,3.04,2.76,3.04,1.24,0,2.03-.58,2.03-1.88Zm-3.81-9.38c-.38,.31-.58,.85-.58,1.41,0,1.39,1.03,2.01,2.07,2.46,.41,.17,.88,.35,1.03,.31,.51-.21,.92-.95,.92-1.82s-.11-1.53-.71-2.17c-.34-.37-.77-.66-1.47-.66-.53,0-.94,.19-1.26,.48Z"/><path class="cls-1" d="M78.76,65.74c0,.62-.47,1.12-.83,1.43-.45,.48-.96,.87-1.47,1.3,1.88,1.01,2.84,1.88,2.84,3.6,0,1.43-.96,2.5-1.67,2.94-.83,.54-2.1,1.02-3.14,1.02-1.16,0-2.46-.27-3.25-.91-.98-.77-1.35-1.72-1.35-2.59,0-.62,.28-1.1,.6-1.45,.28-.29,1.37-1.06,2.1-1.61-1.39-.89-2.14-1.8-2.14-3.13,0-.97,.3-1.78,.92-2.38,.49-.48,1.13-.87,1.77-1.16,.6-.27,1.18-.37,1.67-.37,2.46,0,3.98,1.37,3.96,3.31Zm-1.75,7.43c0-.68-.3-1.31-.79-1.78-.75-.73-1.69-1.16-2.12-1.3-.36-.08-.71-.15-.98,0-.45,.23-.9,.97-.9,1.92,0,2.01,1.65,3.04,2.76,3.04,1.24,0,2.03-.58,2.03-1.88Zm-3.81-9.38c-.39,.31-.58,.85-.58,1.41,0,1.39,1.03,2.01,2.07,2.46,.41,.17,.88,.35,1.03,.31,.51-.21,.92-.95,.92-1.82s-.11-1.53-.71-2.17c-.34-.37-.77-.66-1.48-.66-.53,0-.94,.19-1.26,.48Z"/><path class="cls-1" d="M88.57,63.47c.9,.85,1.2,1.99,1.2,2.94,0,1.2-.43,2.11-1.24,3.02-1.18,1.28-3.12,2.98-4.3,4.06-.09,.04-.02,.19,.13,.19,.66,0,4.19-.04,4.55-.06,.56-.02,.77-.15,1.3-1.32,.04-.1,.06-.1,.17-.04,.13,.04,.26,.16,.43,.29,.13,.06,.19,.19,.13,.31-.24,.39-1.2,2.55-1.3,2.75-.09,.15-.19,.21-.28,.21-.19,0-2.5-.02-4.62-.06-.71-.02-2.76-.02-3.31-.02-.19,0-.28-.12-.26-.19,.21-.68,.43-1.06,.66-1.26,.49-.39,2.39-1.72,3.87-3.54,1.2-1.45,1.5-2.67,1.5-3.77,0-1.55-.81-2.46-2.35-2.46-1.41,0-2.2,.68-2.82,1.97-.06,.06-.11,.06-.56-.1-.09-.02-.15-.1-.15-.19,.24-.97,.79-1.86,1.45-2.5,.62-.6,1.65-1.24,3.06-1.24,1.22,0,2.18,.5,2.74,1.03Z"/></g><g><g><path class="cls-2" d="M95.95,16.47v6.16h.92v-6.16c0-3.5-.49-4.85-3.99-4.85v-1.04h11.97v1.04c-3.38,0-3.99,1.17-3.99,4.85v6.16h.92v-6.16c0-3.42,.4-3.93,3.07-3.93h.92v-2.88h-13.81v2.88h.92c2.64,0,3.07,.55,3.07,3.93Z"/><path class="cls-2" d="M96.79,37.08h-1.06c-2.23,4.01-5.07,5.98-8.68,5.98s-6.09-2.22-7.03-5.98h-.95c1.05,4.59,4.19,6.9,7.98,6.9,4.67,0,7.66-2.93,9.74-6.9Z"/><path class="cls-2" d="M73.66,16.47v6.16s.92,0,.92,0v-6.16c0-3.68-.61-4.85-3.99-4.85v-1.04s12.1,0,12.1,0v1.04c-3.5,0-3.99,1.35-3.99,4.85v6.16h.92v-6.16c0-3.38,.43-3.93,3.07-3.93h.92v-2.88h-13.93v2.88h.92c2.67,0,3.07,.51,3.07,3.93Z"/><path class="cls-2" d="M101.78,39.56v-2.48h-.92v2.48c0,3.68,.61,4.85,3.99,4.85v1.04h-7.98v-5.65c-1.53,2.39-4.48,6.69-11.3,6.69-5.67,0-9.57-4.16-10.67-9.42h-.94c1.18,6.07,5.78,10.34,11.61,10.34,5.36,0,8.51-2.53,10.38-4.76v3.71h9.82v-2.88h-.92c-2.67,0-3.07-.51-3.07-3.93Z"/><path class="cls-2" d="M43.55,22.64c-2.04-2.4-3.5-5.25-3.5-8.71,0-7.93,6.39-12.67,12.57-12.67s8.48,2.12,10.96,2.12c1.44,0,1.85-1.57,1.85-1.57h.69V13.51h-.73s-1.76-10.5-11.39-10.5c-4.63,0-9.62,2.58-9.62,8.24,0,4.32,4.06,8.05,8.55,11.38h1.56c-4.69-3.39-9.19-7.17-9.19-11.38,0-5.03,4.51-7.32,8.7-7.32,9.34,0,10.61,10.5,10.61,10.5h2.42s0-13.54,0-13.54h-2.3s-.18,1.57-1.16,1.57c-2.2,0-4.69-2.12-10.96-2.12-6.63,0-13.49,5.08-13.49,13.59,0,3.45,1.32,6.3,3.22,8.71h1.2Z"/><path class="cls-2" d="M68.32,37.08c.47,1.32,.75,2.78,.75,4.38,0,9.19-7.15,13.31-14.23,13.31s-9.83-2.21-12.07-2.21c-1.83,0-2.38,1.66-2.38,1.66h-.9v-13.64h.82s2.33,12.52,13.32,12.52c6.45,0,10.45-3.47,10.45-9.07,0-2.51-1.31-4.84-3.18-6.96h-1.25c2.04,2.14,3.51,4.49,3.51,6.96,0,5.1-3.56,8.15-9.53,8.15-10.64,0-12.56-12.52-12.56-12.52h-2.5s0,15.48,0,15.48h2.46s.27-1.66,1.73-1.66c1.82,0,4.84,2.21,12.07,2.21s15.15-4.4,15.15-14.23c0-1.6-.25-3.05-.69-4.38h-.98Z"/><path class="cls-2" d="M6.04,16.72s.89,2.51,2.11,5.92h.98l-2.22-6.23c-1.47-4.17-3.19-4.79-5.65-4.79v-1.04H13.66v1.04c-1.78,0-3.99,.55-2.58,4.6l2.27,6.41h.98l-2.37-6.72c-.65-1.84-.95-3.38,1.71-3.38h.92v-2.88H.34v2.88h.92c2,0,3.41,.29,4.78,4.17Z"/><polygon class="cls-2" points="19.92 37.08 19.68 37.77 19.43 37.08 18.45 37.08 19.68 40.54 20.89 37.08 19.92 37.08"/><path class="cls-2" d="M27.34,15.93l-2.36,6.71h.97l2.25-6.41c1.41-4.05-.8-4.6-2.58-4.6v-1.04h10.31v1.04c-2.46,0-4.17,.61-5.65,4.79l-2.22,6.23h.98c1.21-3.41,2.11-5.92,2.11-5.92,1.37-3.89,2.78-4.18,4.78-4.18h.92v-2.88h-12.15v2.88h.92c2.54,0,2.43,1.34,1.71,3.38Z"/><path class="cls-2" d="M22.51,41.03s.56-1.59,1.41-3.95h-.98l-1.3,3.65c-.98,2.82,.68,3.74,2.21,3.74v.98H13.35v-.98c1.53,0,3.19-.92,2.21-3.74l-1.3-3.65h-.98c.84,2.36,1.41,3.95,1.41,3.95,.49,1.38,.36,2.52-1.34,2.52h-.92v2.82h12.34v-2.82h-.92c-1.66,0-1.87-1.08-1.34-2.52Z"/><path class="cls-2" d="M.31,22.95v13.81H105.8v-13.81H.31Zm104.56,12.89H1.23v-11.97H104.88v11.97Z"/><path class="cls-2" d="M5.79,27.09c.26,.73,.59,1.47,.87,2.19l1.87,4.67h.42l2.06-5.17c.02-.06,.79-2.01,.86-2.13,.16-.27,.37-.44,.76-.44v-.29c-.35,.01-.7,.02-1.05,.02-.44,0-.89-.01-1.33-.02v.29c.41,.02,.86-.01,.86,.52,0,.37-.24,.92-.35,1.29-.24,.73-.55,1.45-.82,2.19l-.86,2.23-1.5-3.86c-.12-.33-.72-1.69-.72-2.06,0-.17,.14-.26,.29-.27,.16-.02,.32-.02,.48-.03v-.29c-.47,0-.96,.02-1.43,.02-.53,0-1.06-.01-1.59-.02v.29c.74,0,.92,.21,1.18,.89Z"/><path class="cls-2" d="M16.76,33.44v-.24c-.5,0-.85-.02-.85-.68v-4.72c0-.66,.36-.67,.85-.68v-.24c-.47,0-.9,.02-1.33,.02s-.85,0-1.3-.02v.24c.5,0,.85,.02,.85,.68v4.72c0,.66-.36,.67-.85,.68v.24c.47,0,.91-.02,1.36-.02,.41,0,.82,.02,1.27,.02Z"/><path class="cls-2" d="M21.85,33.44v-.24c-.5,0-.86-.02-.86-.68v-2.18h.86c.68,1.06,1.31,2.16,2.16,3.1,.26,0,.54-.02,.8-.02,.23,0,.47,.02,.7,.02v-.24c-.48,0-.76-.25-1.06-.59-.4-.45-.86-1.2-1.71-2.45,.73-.22,1.33-.81,1.33-1.61,0-.67-.39-1.66-2.17-1.66-.6,0-.93,.02-1.26,.02-.46,0-.91,0-1.43-.02v.24c.5,0,.86,.02,.86,.68v4.76c0,.54-.39,.66-.86,.63v.24c.47,0,.91-.02,1.36-.02,.41,0,.82,.02,1.27,.02Zm-.86-6.2c.17-.03,.33-.06,.56-.06,1.11,0,1.54,.6,1.54,1.42,0,.68-.45,1.44-1.61,1.44-.16,0-.36-.02-.5-.05v-2.75Z"/><path class="cls-2" d="M30.76,33.59c.82,0,1.68-.26,2.44-.54v-.16l-.14-.14v-1.23c0-.69,.36-.69,.67-.69v-.24c-.28,0-.71,.02-1.15,.02s-.86,0-1.3-.02v.24c.5,0,.86,0,.86,.69v1.4c-.14,.1-.53,.37-1.27,.37-1.69,0-2.69-1.63-2.69-3.25,0-1.53,.96-2.99,2.62-2.99,1.05,0,1.96,.43,2.21,1.52h.21l-.16-1.32c-.78-.29-1.58-.51-2.41-.51-1.96,0-3.49,1.46-3.49,3.43,0,1.34,.97,3.41,3.61,3.41Z"/><path class="cls-2" d="M38.67,33.44v-.24c-.5,0-.85-.02-.85-.68v-4.72c0-.66,.36-.67,.85-.68v-.24c-.47,0-.9,.02-1.33,.02s-.86,0-1.3-.02v.24c.5,0,.86,.02,.86,.68v4.72c0,.66-.36,.67-.86,.68v.24c.47,0,.91-.02,1.36-.02,.41,0,.82,.02,1.27,.02Z"/><path class="cls-2" d="M42.09,28.23v3.78c0,1.19-.43,1.19-1.01,1.19v.24c.41,0,.84-.02,1.25-.02s.84,.02,1.25,.02v-.24c-1.01,0-1.12-.26-1.12-1.56v-3.5l4.91,5.39h.22v-5.43c0-.92,.31-.97,.88-.97v-.24c-.37,0-.72,.02-1.09,.02-.43,0-.87,0-1.31-.02v.24c.94,0,1.14,.27,1.14,1.14v3.74c-.64-.7-1.52-1.63-2.32-2.51-1.07-1.18-1.94-2.04-2.33-2.61-.25,0-.52,.02-.77,.02-.29,0-.57,0-.86-.02v.24c.81,0,1.16,.29,1.16,1.1Z"/><path class="cls-2" d="M53.37,33.44v-.24c-.5,0-.85-.02-.85-.68v-4.72c0-.66,.36-.67,.85-.68v-.24c-.47,0-.9,.02-1.33,.02s-.85,0-1.3-.02v.24c.5,0,.86,.02,.86,.68v4.72c0,.66-.36,.67-.86,.68v.24c.47,0,.91-.02,1.36-.02,.41,0,.82,.02,1.27,.02Z"/><path class="cls-2" d="M57.9,33.44v-.24h-.22c-.33-.02-.64,0-.64-.44,0-.29,.13-.72,.25-1.12l.21-.66h2.21l.47,1.36c.07,.18,.14,.44,.14,.54,0,.26-.28,.31-.52,.31h-.17v.24c.46,0,.91-.02,1.37-.02,.36,0,.72,.02,1.08,.02v-.24c-.3,0-.58-.07-.72-.25-.15-.21-.4-1-.54-1.37l-1.79-4.95h-.16c-.13,.22-.35,.32-.55,.41,.02,.08,.02,.15,.02,.24,0,.28-.12,.63-.2,.85l-1.2,3.35c-.12,.35-.24,.71-.38,1.05-.24,.53-.34,.6-.91,.67v.24c.38,0,.76-.02,1.14-.02s.74,.02,1.11,.02Zm.65-5.61h.02l1.01,2.76h-1.94l.91-2.76Z"/><path class="cls-2" d="M67.88,33.6c-.94,0-1.57-.82-1.76-1.67h-.26l.23,1.65c.53,.25,1.14,.38,1.72,.38,1.33,0,2.65-.82,2.65-2.29,0-2.59-3.47-2.02-3.47-4.12,0-.82,.5-1.44,1.35-1.44,.81,0,1.33,.46,1.45,1.25h.26l-.18-1.44c-.45-.07-.91-.17-1.38-.17-1.38,0-2.41,.75-2.41,2.21,0,2.66,3.34,2.04,3.34,4.14,0,.89-.68,1.5-1.54,1.5Z"/><path class="cls-2" d="M73.82,27.27h1.23v5.25c0,.66-.36,.67-.85,.68v.24c.47,0,.91-.02,1.36-.02,.41,0,.82,.02,1.27,.02v-.24c-.5,0-.86-.02-.86-.68v-5.25h1.43c.75,0,.72,.34,.75,.85h.25l.08-1.49h-.2c-.04,.18-.27,.26-.61,.26h-4.27c-.23,0-.49,0-.59-.26h-.19l-.1,1.49h.24c.16-.61,.2-.85,1.04-.85Z"/><path class="cls-2" d="M82.24,33.44v-.24h-.22c-.33-.02-.64,0-.64-.44,0-.29,.13-.72,.25-1.12l.21-.66h2.21l.47,1.36c.06,.18,.14,.44,.14,.54,0,.26-.28,.31-.52,.31h-.17v.24c.46,0,.91-.02,1.37-.02,.36,0,.72,.02,1.08,.02v-.24c-.3,0-.58-.07-.72-.25-.15-.21-.4-1-.54-1.37l-1.79-4.95h-.16c-.13,.22-.35,.32-.54,.41,.02,.08,.02,.15,.02,.24,0,.28-.12,.63-.2,.85l-1.2,3.35c-.12,.35-.24,.71-.39,1.05-.23,.53-.34,.6-.91,.67v.24c.38,0,.76-.02,1.14-.02s.74,.02,1.11,.02Zm.65-5.61h.02l1,2.76h-1.93l.91-2.76Z"/><path class="cls-2" d="M89.22,27.27h1.23v5.25c0,.66-.36,.67-.86,.68v.24c.47,0,.91-.02,1.36-.02,.41,0,.82,.02,1.27,.02v-.24c-.5,0-.85-.02-.85-.68v-5.25h1.43c.75,0,.72,.34,.75,.85h.25l.08-1.49h-.2c-.04,.18-.27,.26-.61,.26h-4.26c-.23,0-.49,0-.59-.26h-.19l-.1,1.49h.24c.16-.61,.2-.85,1.04-.85Z"/><path class="cls-2" d="M101.12,33.44c.09-.49,.23-.97,.39-1.44l-.23-.04c-.37,1.01-.78,1.13-1.7,1.18h-.58c-.93,0-.97-.26-.97-1.31v-1.6h1.01c.72,0,1.02,0,1.02,.9h.19c0-.3-.04-.74-.04-1.04,0-.34,.02-.85,.04-1.05h-.19c-.03,.22-.03,.81-.79,.81h-1.24v-2.67h1.1c.94,0,1.36,.26,1.5,1.15l.19-.05v-1.4c-.91,.02-1.8,.02-2.71,.02-.63,0-1.27,0-1.9-.02v.24c.74,.03,.89,.07,.89,.84v4.17c0,.91-.08,1.06-.89,1.06v.24c.7-.02,1.39-.02,2.09-.02,.94,0,1.88,.02,2.82,.02Z"/></g><g><path class="cls-1" d="M104.85,12.88h1.26v-3.56h-14.49v3.56h1.26c2.45,0,2.73,.37,2.73,3.59v6.16h-15.66v-6.16c0-3.22,.28-3.59,2.73-3.59h1.26v-3.56h-14.61v3.56h1.26c2.35,0,2.73,.24,2.73,3.59v6.16h-18.25c-4.76-3.41-9.43-7.21-9.43-11.38,0-5.51,5.26-6.98,8.36-6.98,9.14,0,10.33,10.5,10.33,10.5h3.05s0-14.22,0-14.22h-2.89s-.22,1.57-.91,1.57c-2.14,0-4.55-2.12-10.96-2.12-6.8,0-13.83,5.21-13.83,13.92,0,3.44,1.28,6.3,3.12,8.71h-12.5l2.07-5.8c1.3-3.69,2.55-3.95,4.46-3.95h1.26v-3.56h-12.83v3.56h1.26c2.28,0,1.96,1.3,1.39,2.93l-2.39,6.82H14.68l-2.41-6.83c-.49-1.4-1-2.93,1.39-2.93h1.26v-3.56H0v3.56H1.26c1.91,0,3.16,.27,4.46,3.95l2.07,5.81H0v14.44H12.93l1.45,4.07c.34,.96,.54,2.06-1.02,2.06h-1.26v3.5h13.02v-3.5h-1.26c-1.56,0-1.37-1.1-1.02-2.07l1.45-4.06H59.19c2.1,2.15,3.64,4.5,3.64,6.96,0,4.89-3.44,7.81-9.19,7.81-10.56,0-12.28-12.52-12.28-12.52h-3.12s0,16.15,0,16.15h3.03s.26-1.66,1.5-1.66c1.79,0,4.78,2.21,12.07,2.21,7.71,0,15.49-4.51,15.49-14.57,0-1.59-.25-3.05-.68-4.38h3.97c1.19,6.26,5.93,10.68,11.96,10.68,4.96,0,8.07-2.12,10.04-4.2v3.16h10.5v-3.56h-1.26c-2.35,0-2.73-.24-2.73-3.59v-2.48h3.99v-14.44h-3.99v-6.16c0-3.35,.38-3.59,2.73-3.59Zm-34.26-.34h-.92v-2.88h13.93v2.88h-.92c-2.64,0-3.07,.55-3.07,3.93v6.16h-.92v-6.16c0-3.5,.49-4.85,3.99-4.85v-1.04h-12.1v1.04c3.38,0,3.99,1.17,3.99,4.85v6.16h-.92v-6.16c0-3.42-.4-3.93-3.07-3.93Zm-31.46,1.38C39.13,5.42,45.99,.34,52.62,.34c6.27,0,8.76,2.12,10.96,2.12,.98,0,1.16-1.57,1.16-1.57h2.3V14.43h-2.42s-1.27-10.5-10.61-10.5c-4.19,0-8.7,2.29-8.7,7.32,0,4.22,4.5,7.99,9.19,11.38h-1.56c-4.49-3.34-8.55-7.06-8.55-11.38,0-5.66,4.99-8.24,9.62-8.24,9.63,0,11.39,10.5,11.39,10.5h.73V1.81h-.69s-.41,1.57-1.85,1.57c-2.48,0-4.78-2.12-10.96-2.12s-12.57,4.74-12.57,12.67c0,3.46,1.46,6.31,3.5,8.71h-1.2c-1.9-2.41-3.22-5.26-3.22-8.71Zm-11.79,2c.72-2.04,.83-3.38-1.71-3.38h-.92v-2.88h12.15v2.88h-.92c-2,0-3.41,.29-4.78,4.18,0,0-.89,2.51-2.11,5.92h-.98l2.22-6.23c1.47-4.17,3.19-4.79,5.65-4.79v-1.04h-10.31v1.04c1.78,0,3.99,.55,2.58,4.6l-2.25,6.41h-.97l2.36-6.71Zm-21.3,.79c-1.37-3.88-2.78-4.17-4.78-4.17H.34v-2.88H14.58v2.88h-.92c-2.66,0-2.36,1.54-1.71,3.38l2.37,6.72h-.98l-2.27-6.41c-1.41-4.05,.8-4.6,2.58-4.6v-1.04H1.26v1.04c2.46,0,4.18,.61,5.65,4.79l2.22,6.23h-.98c-1.21-3.41-2.11-5.92-2.11-5.92Zm16.47,24.31c-.53,1.44-.31,2.52,1.34,2.52h.92v2.82H12.43v-2.82h.92c1.7,0,1.84-1.13,1.34-2.52,0,0-.57-1.59-1.41-3.95h.98l1.3,3.65c.98,2.82-.68,3.74-2.21,3.74v.98h10.5v-.98c-1.54,0-3.19-.92-2.21-3.74l1.3-3.65h.98c-.84,2.36-1.41,3.95-1.41,3.95Zm-4.06-3.95h.98l.25,.69,.24-.69h.97l-1.22,3.46-1.22-3.46Zm51.53,4.38c0,9.83-7.61,14.23-15.15,14.23s-10.24-2.21-12.07-2.21c-1.46,0-1.73,1.66-1.73,1.66h-2.46v-15.48h2.5s1.93,12.52,12.56,12.52c5.97,0,9.53-3.05,9.53-8.15,0-2.48-1.47-4.82-3.51-6.96h1.25c1.87,2.12,3.18,4.45,3.18,6.96,0,5.59-4,9.07-10.45,9.07-11,0-13.32-12.52-13.32-12.52h-.82v13.64h.9s.55-1.66,2.38-1.66c2.23,0,4.8,2.21,12.07,2.21s14.23-4.12,14.23-13.31c0-1.61-.27-3.06-.75-4.38h.98c.44,1.33,.69,2.78,.69,4.38Zm34.87,2.03h.92v2.88h-9.82v-3.71c-1.87,2.23-5.02,4.76-10.38,4.76-5.84,0-10.43-4.27-11.61-10.34h.94c1.1,5.26,5,9.42,10.67,9.42,6.82,0,9.76-4.3,11.3-6.69v5.65h7.98v-1.04c-3.38,0-3.99-1.17-3.99-4.85v-2.48h.92v2.48c0,3.42,.4,3.93,3.07,3.93Zm-17.81-.43c3.61,0,6.45-1.97,8.68-5.98h1.06c-2.08,3.97-5.07,6.9-9.74,6.9-3.79,0-6.93-2.31-7.98-6.9h.95c.94,3.76,3.45,5.98,7.03,5.98Zm-6.67-5.98h14.97c-2.17,3.83-4.82,5.64-8.29,5.64s-5.76-2.09-6.67-5.64Zm25.42-14.13v13.81H.31v-13.81H105.8Zm-4.02-6.48v6.16h-.92v-6.16c0-3.68,.61-4.85,3.99-4.85v-1.04h-11.97v1.04c3.5,0,3.99,1.35,3.99,4.85v6.16h-.92v-6.16c0-3.38-.43-3.93-3.07-3.93h-.92v-2.88h13.81v2.88h-.92c-2.67,0-3.07,.51-3.07,3.93Z"/><polygon class="cls-1" points="82.89 27.83 81.98 30.6 83.91 30.6 82.91 27.83 82.89 27.83"/><path class="cls-1" d="M104.88,23.87H1.23v11.97H104.88v-11.97ZM12.62,26.2c-.38,0-.6,.17-.76,.44-.07,.12-.83,2.07-.86,2.13l-2.06,5.17h-.42l-1.87-4.67c-.28-.72-.61-1.45-.87-2.19-.26-.68-.44-.89-1.18-.89v-.29c.53,.01,1.06,.02,1.59,.02,.47,0,.96-.02,1.43-.02v.29c-.17,.01-.33,.01-.48,.03-.16,.01-.29,.1-.29,.27,0,.37,.6,1.74,.72,2.06l1.5,3.86,.86-2.23c.27-.73,.59-1.45,.82-2.19,.11-.36,.35-.91,.35-1.29,0-.53-.45-.5-.86-.52v-.29c.44,.01,.89,.02,1.33,.02,.35,0,.7-.01,1.05-.02v.29Zm4.14,.93c-.5,0-.85,.02-.85,.68v4.72c0,.66,.36,.67,.85,.68v.24c-.45,0-.85-.02-1.27-.02-.45,0-.89,0-1.36,.02v-.24c.5,0,.85-.02,.85-.68v-4.72c0-.66-.36-.67-.85-.68v-.24c.44,0,.87,.02,1.3,.02s.86,0,1.33-.02v.24Zm8.75,6.31c-.23,0-.47-.02-.7-.02-.26,0-.54,0-.8,.02-.86-.94-1.48-2.04-2.16-3.1h-.86v2.18c0,.66,.36,.67,.86,.68v.24c-.45,0-.86-.02-1.27-.02-.45,0-.89,0-1.36,.02v-.24c.47,.03,.86-.09,.86-.63v-4.76c0-.66-.36-.67-.86-.68v-.24c.52,0,.97,.02,1.43,.02,.33,0,.66-.02,1.26-.02,1.78,0,2.17,1,2.17,1.66,0,.8-.6,1.39-1.33,1.61,.85,1.25,1.31,2,1.71,2.45,.3,.34,.58,.59,1.06,.59v.24Zm8.21-2.61c-.31,0-.67,0-.67,.69v1.23l.14,.14v.16c-.76,.27-1.62,.54-2.44,.54-2.64,0-3.61-2.07-3.61-3.41,0-1.97,1.53-3.43,3.49-3.43,.84,0,1.64,.22,2.41,.51l.16,1.32h-.21c-.24-1.09-1.16-1.52-2.21-1.52-1.66,0-2.62,1.46-2.62,2.99,0,1.63,1,3.25,2.69,3.25,.74,0,1.13-.26,1.27-.37v-1.4c0-.69-.36-.69-.86-.69v-.24c.44,0,.87,.02,1.3,.02s.86,0,1.15-.02v.24Zm4.94-3.7c-.5,0-.85,.02-.85,.68v4.72c0,.66,.36,.67,.85,.68v.24c-.45,0-.85-.02-1.27-.02-.45,0-.89,0-1.36,.02v-.24c.5,0,.86-.02,.86-.68v-4.72c0-.66-.36-.67-.86-.68v-.24c.44,0,.87,.02,1.3,.02s.86,0,1.33-.02v.24Zm9.81,0c-.57,0-.88,.05-.88,.97v5.43h-.22l-4.91-5.39v3.5c0,1.3,.1,1.56,1.12,1.56v.24c-.41,0-.84-.02-1.25-.02s-.84,0-1.25,.02v-.24c.57,0,1.01,0,1.01-1.19v-3.78c0-.81-.35-1.1-1.16-1.1v-.24c.29,0,.57,.02,.86,.02,.25,0,.52-.02,.77-.02,.39,.57,1.26,1.43,2.33,2.61,.8,.88,1.68,1.81,2.32,2.51v-3.74c0-.86-.2-1.13-1.14-1.14v-.24c.43,0,.87,.02,1.31,.02,.37,0,.72-.02,1.09-.02v.24Zm4.89,0c-.5,0-.85,.02-.85,.68v4.72c0,.66,.36,.67,.85,.68v.24c-.45,0-.85-.02-1.27-.02-.45,0-.89,0-1.36,.02v-.24c.5,0,.86-.02,.86-.68v-4.72c0-.66-.36-.67-.86-.68v-.24c.44,0,.87,.02,1.3,.02s.86,0,1.33-.02v.24Zm8.73,6.31c-.36,0-.72-.02-1.08-.02-.46,0-.91,0-1.37,.02v-.24h.17c.23,0,.52-.05,.52-.31,0-.1-.07-.37-.14-.54l-.47-1.36h-2.21l-.21,.66c-.12,.4-.25,.83-.25,1.12,0,.44,.31,.42,.64,.44h.22v.24c-.37,0-.74-.02-1.11-.02s-.76,0-1.14,.02v-.24c.57-.07,.68-.14,.91-.67,.15-.34,.26-.7,.38-1.05l1.2-3.35c.07-.22,.2-.56,.2-.85,0-.09,0-.17-.02-.24,.2-.09,.41-.2,.55-.41h.16l1.79,4.95c.13,.37,.39,1.17,.54,1.37,.14,.19,.42,.25,.72,.25v.24Zm5.72,.52c-.59,0-1.2-.13-1.72-.38l-.23-1.65h.26c.19,.85,.82,1.67,1.76,1.67,.87,0,1.54-.61,1.54-1.5,0-2.1-3.34-1.48-3.34-4.14,0-1.45,1.04-2.21,2.41-2.21,.46,0,.92,.1,1.38,.17l.18,1.44h-.26c-.12-.79-.64-1.25-1.45-1.25-.86,0-1.35,.62-1.35,1.44,0,2.1,3.47,1.52,3.47,4.12,0,1.47-1.32,2.29-2.65,2.29Zm10.6-5.84h-.25c-.03-.51,0-.85-.75-.85h-1.43v5.25c0,.66,.36,.67,.86,.68v.24c-.45,0-.86-.02-1.27-.02-.45,0-.89,0-1.36,.02v-.24c.5,0,.85-.02,.85-.68v-5.25h-1.23c-.85,0-.88,.24-1.04,.85h-.24l.1-1.49h.19c.1,.25,.36,.26,.59,.26h4.27c.34,0,.57-.08,.61-.26h.2l-.08,1.49Zm8.02,5.33c-.36,0-.72-.02-1.08-.02-.46,0-.91,0-1.37,.02v-.24h.17c.23,0,.52-.05,.52-.31,0-.1-.08-.37-.14-.54l-.47-1.36h-2.21l-.21,.66c-.12,.4-.25,.83-.25,1.12,0,.44,.31,.42,.64,.44h.22v.24c-.37,0-.74-.02-1.11-.02s-.76,0-1.14,.02v-.24c.57-.07,.68-.14,.91-.67,.15-.34,.26-.7,.39-1.05l1.2-3.35c.08-.22,.2-.56,.2-.85,0-.09,0-.17-.02-.24,.2-.09,.41-.2,.54-.41h.16l1.79,4.95c.13,.37,.39,1.17,.54,1.37,.14,.19,.42,.25,.72,.25v.24Zm7.37-5.33h-.25c-.03-.51,0-.85-.75-.85h-1.43v5.25c0,.66,.36,.67,.85,.68v.24c-.45,0-.85-.02-1.27-.02-.45,0-.89,0-1.36,.02v-.24c.5,0,.86-.02,.86-.68v-5.25h-1.23c-.84,0-.88,.24-1.04,.85h-.24l.1-1.49h.19c.1,.25,.36,.26,.59,.26h4.26c.34,0,.57-.08,.61-.26h.2l-.08,1.49Zm7.32,5.33c-.94,0-1.88-.02-2.82-.02-.7,0-1.39,0-2.09,.02v-.24c.82,0,.89-.15,.89-1.06v-4.17c0-.77-.15-.81-.89-.84v-.24c.63,.02,1.27,.02,1.9,.02,.9,0,1.79,0,2.71-.02v1.4l-.19,.05c-.14-.88-.56-1.15-1.5-1.15h-1.1v2.67h1.24c.76,0,.76-.59,.79-.81h.19c-.02,.21-.04,.71-.04,1.05,0,.3,.05,.74,.04,1.04h-.19c0-.9-.3-.9-1.02-.9h-1.01v1.6c0,1.04,.04,1.31,.97,1.31h.58c.92-.05,1.33-.17,1.7-1.18l.23,.04c-.15,.47-.29,.95-.39,1.44Z"/><path class="cls-1" d="M21.56,27.19c-.24,0-.39,.03-.56,.06v2.75c.14,.03,.34,.05,.5,.05,1.16,0,1.61-.76,1.61-1.44,0-.82-.43-1.42-1.54-1.42Z"/><polygon class="cls-1" points="58.55 27.83 57.64 30.6 59.57 30.6 58.57 27.83 58.55 27.83"/><polygon class="cls-1" points="103.87 47.63 104.26 47.63 104.26 48.79 104.4 48.79 104.4 47.63 104.8 47.63 104.8 47.49 103.87 47.49 103.87 47.63"/><polygon class="cls-1" points="105.55 48.55 105.22 47.49 104.99 47.49 104.99 48.79 105.13 48.79 105.13 47.68 105.48 48.79 105.62 48.79 105.97 47.68 105.97 48.79 106.11 48.79 106.11 47.49 105.89 47.49 105.55 48.55"/></g></g></g></g></svg>