<?xml version="1.0" encoding="UTF-8"?>
<svg width="40px" height="40px" viewBox="0 0 40 40" version="1.1" xmlns="http://www.w3.org/2000/svg" xmlns:xlink="http://www.w3.org/1999/xlink">
    <title>SACS logo</title>
    <g id="Symbols" stroke="none" stroke-width="1" fill="none" fill-rule="evenodd">
        <g id="Global-Footer" transform="translate(-1307.000000, -347.000000)" fill="#FFFFFF" fill-rule="nonzero">
            <g id="Shape" transform="translate(1307.000000, 347.000000)">
                <path d="M19.9932203,0 C8.95084746,0 0,8.95084746 0,19.9932203 C0,31.0355932 8.95084746,39.9881356 19.9932203,39.9881356 C31.0355932,39.9881356 39.9881356,31.0355932 39.9881356,19.9932203 C39.9881356,8.95084746 31.0355932,0 19.9932203,0 Z M37.7254237,25.8016949 L35.2347458,26.1288136 L36.7711864,28.1584746 L34.1881356,28.2661017 L35.4550847,30.4364407 L32.85,30.2254237 L33.8516949,32.4855932 L31.3432203,31.8830508 L31.9254237,34.340678 L29.5220339,33.4313559 L29.8245763,35.859322 L27.3728814,34.7118644 L27.3533898,37.1483051 L25.3305085,35.5872881 L24.9271186,38 L23.209322,36.1745763 L22.5313559,38.490678 L21.0084746,36.4762712 L19.7720339,38.6627119 L18.8008475,36.4838983 L17.4618644,38.4957627 L16.3127119,36.140678 L14.4305085,37.8262712 L14.1313559,35.5084746 L11.8347458,36.8008475 L11.7855932,34.4330508 L9.49745763,35.45 L9.86016949,33.179661 L7.37627119,33.7728814 L7.95677966,31.5016949 L5.55254237,31.8508475 L6.42033898,29.679661 L3.93644068,29.5559322 L5.09237288,27.5279661 L2.98813559,27.1042373 L4.14915254,25.3177966 L1.91271186,24.5762712 L3.53983051,23.0271186 L1.42118644,22.0618644 L3.25508475,20.6737288 L1.3559322,19.2423729 L3.35169492,18.1152542 L1.61016949,16.6432203 L3.71779661,15.9830508 L2.20338983,14.1813559 L4.42372881,13.7932203 L3.26186441,11.6949153 L5.52118644,11.5449153 L4.58898305,9.41949153 L6.92711864,9.51610169 L6.20677966,7.38728814 L8.54152542,7.78305085 L8.08983051,5.59322034 L10.2271186,6.41016949 C10.2271186,6.41016949 10.2271186,4.86864407 10.2338983,4.06186441 C10.2822034,4.06864407 12.3872881,5.1 12.3872881,5.1 L12.620339,2.82627119 L14.6152542,4.17457627 L15.2542373,1.96016949 C15.2542373,1.96016949 16.7711864,3.54661017 16.8644068,3.58135593 C16.8644068,3.53983051 17.7398305,1.45338983 17.7398305,1.45338983 L19.0016949,3.33305085 L20.3516949,1.32372881 L21.6508475,3.45677966 L23.3567797,1.62542373 L23.8516949,3.82033898 L26.0050847,2.31440678 L26.1415254,4.56949153 L28.3449153,3.33305085 L28.3050847,5.65 L30.8161017,4.78728814 L30.3144068,7.05423729 L32.7067797,6.33305085 L31.9940678,8.56779661 L34.5364407,8.30084746 L33.5398305,10.5576271 L36.1347458,10.6279661 L34.7118644,12.4711864 L37.2686441,12.9347458 L35.6194915,14.770339 L38.0686441,15.3567797 L36.1669492,17.0779661 L38.5466102,18.029661 L36.4338983,19.4067797 L38.6372881,20.7084746 L36.3491525,21.6355932 L38.3830508,23.1432203 L35.9584746,23.8338983 L37.7254237,25.8016949 Z M17.2169492,25.5008475 L19.9067797,28.2805085 L22.5889831,25.690678 L26.2720339,12.259322 L26.1135593,27.2525424 L21.6101695,30.0847458 L25.4101695,34.229661 L19.6720339,30.9033898 L14.1305085,33.9830508 L18.0508475,29.8177966 L13.8305085,26.859322 L14.120339,11.6576271 L17.2169492,25.5008475 Z M18.5,19.6042373 C18.5,19.6042373 17.6855932,14.9559322 21.5618644,11.0110169 C21.5618644,11.0110169 20.2610169,13.0228814 21.859322,17.1008475 C23.4576271,21.1788136 23.1508475,22.9771186 21.720339,23.8661017 C20.2898305,24.7550847 18.0415254,24.5067797 17.2237288,22.7144068 C16.4059322,20.9220339 16.9889831,18.5211864 17.8855932,17.1076271 C17.8889831,17.1076271 17.3771186,19.1033898 18.5033898,19.6042373 L18.5,19.6042373 Z M5.99237288,24.2983051 C6.06727002,24.2706942 6.14868523,24.2659745 6.22627119,24.2847458 C6.30734166,24.3054392 6.38047115,24.3496707 6.43644068,24.4118644 C6.50474091,24.4868088 6.55617935,24.5755257 6.58728814,24.6720339 C6.63025913,24.7813188 6.64342001,24.9000593 6.62542373,25.0161017 C6.61132146,25.086594 6.58084002,25.1527823 6.53644068,25.209322 C6.49793304,25.2614514 6.44528872,25.3014493 6.38474576,25.3245763 C6.35404304,25.3355251 6.32027196,25.3340039 6.29067797,25.320339 C6.26005344,25.3058109 6.236976,25.279041 6.22711864,25.2466102 C6.21647831,25.2211224 6.21647831,25.1924369 6.22711864,25.1669492 C6.24198743,25.1371144 6.26308354,25.1108165 6.28898305,25.0898305 C6.32074262,25.063088 6.34919289,25.0326462 6.37372881,24.9991525 C6.3958681,24.9680802 6.40985469,24.9319481 6.41440678,24.8940678 C6.41893526,24.8439358 6.41168002,24.7934393 6.39322034,24.7466102 C6.37204617,24.678579 6.32956019,24.619158 6.2720339,24.5771186 C6.22533257,24.5422713 6.16442764,24.5327549 6.10932203,24.5516949 C6.06982946,24.5638339 6.03685816,24.5913099 6.01779661,24.6279661 C5.99958907,24.6666225 5.99059634,24.7089753 5.99152542,24.7516949 C5.99152542,24.7991525 5.99661017,24.8601695 6.00508475,24.9355932 C6.01585007,25.0227531 6.01755408,25.1107939 6.01016949,25.1983051 C6.00484525,25.2672681 5.98146311,25.3336149 5.94237288,25.390678 C5.90055118,25.4486066 5.84108376,25.4914231 5.77288136,25.5127119 C5.7047573,25.5371513 5.63072202,25.5398166 5.56101695,25.520339 C5.48743879,25.4981758 5.42200925,25.4548508 5.37288136,25.3957627 C5.31224261,25.3229085 5.26594697,25.2392313 5.23644068,25.1491525 C5.21023924,25.0794332 5.19591629,25.0058132 5.1940678,24.9313559 C5.19223332,24.8721933 5.20172572,24.8132253 5.2220339,24.7576271 C5.23814578,24.7127123 5.26355868,24.6717051 5.29661017,24.6372881 C5.32314131,24.6089279 5.3559347,24.5871624 5.39237288,24.5737288 C5.42370541,24.5614867 5.45849798,24.5614867 5.48983051,24.5737288 C5.52148394,24.5860713 5.54601435,24.6118438 5.55677966,24.6440678 C5.56694915,24.6684746 5.56694915,24.6959322 5.55677966,24.720339 C5.54243817,24.7489065 5.5235477,24.7749525 5.50084746,24.7974576 C5.46381149,24.8329341 5.43489996,24.8760123 5.41610169,24.9237288 C5.40099645,24.9818734 5.40607582,25.0434234 5.43050847,25.0983051 C5.44836574,25.1574674 5.48420627,25.2095991 5.53305085,25.2474576 C5.56955106,25.277253 5.61854395,25.2867971 5.66355932,25.2728814 C5.68786511,25.2646572 5.70893318,25.2489303 5.72372881,25.2279661 C5.73842128,25.2048464 5.74795976,25.1788323 5.75169492,25.1516949 C5.7564505,25.1237097 5.7584375,25.095324 5.75762712,25.0669492 C5.75762712,25.0381356 5.75254237,24.9923729 5.74745763,24.9279661 C5.73898305,24.8491525 5.73474576,24.7754237 5.73389831,24.7084746 C5.73304837,24.6480889 5.74075193,24.587887 5.75677966,24.529661 C5.771861,24.4785099 5.7985418,24.4315285 5.83474576,24.3923729 C5.87892908,24.3487586 5.93301055,24.3164842 5.99237288,24.2983051 L5.99237288,24.2983051 Z M4.79661017,23.6381356 C4.76350693,23.5137467 4.76350693,23.3828635 4.79661017,23.2584746 C4.82821077,23.1467656 4.89363853,23.0475877 4.98389831,22.9745763 C5.08535808,22.8919471 5.20457365,22.8339347 5.33220339,22.8050847 C5.42827507,22.7811744 5.52752136,22.772594 5.62627119,22.779661 C5.71518146,22.7865141 5.80172632,22.8116122 5.88050847,22.8533898 C5.95668217,22.8945304 6.0224736,22.9524964 6.07288136,23.0228814 C6.12915626,23.1084448 6.16776532,23.2043912 6.18644068,23.3050847 C6.21128038,23.4013543 6.21675348,23.5015984 6.20254237,23.6 C6.19043085,23.6868614 6.15853813,23.7697825 6.10932203,23.8423729 C6.0583711,23.9150458 5.99249718,23.9760081 5.91610169,24.0211864 C5.8320717,24.071961 5.74054821,24.1091425 5.64491525,24.1313559 C5.54857784,24.1553994 5.44889309,24.1631336 5.35,24.1542373 C5.26067406,24.1478327 5.17386307,24.1217894 5.09576271,24.0779661 C5.02127661,24.0360934 4.95701812,23.9782029 4.90762712,23.9084746 C4.85371063,23.8262709 4.81602698,23.7345069 4.79661017,23.6381356 Z M5.39576271,23.0864407 C5.30743221,23.1050595 5.22399433,23.1420147 5.15084746,23.1949153 C5.0904913,23.2387309 5.04495728,23.2999357 5.02033898,23.370339 C4.98127919,23.4926908 5.00334669,23.6263568 5.07966102,23.729661 C5.11089741,23.7710015 5.15119502,23.8046312 5.19745763,23.8279661 C5.25060646,23.8532582 5.30817886,23.8679392 5.36694915,23.8711864 C5.43818732,23.8748974 5.50958246,23.8680435 5.57881356,23.8508475 C5.64936536,23.8353142 5.71710708,23.8090178 5.77966102,23.7728814 C5.83197882,23.7429635 5.87756167,23.7025736 5.91355932,23.6542373 C5.94473035,23.6119987 5.96614829,23.5633742 5.97627119,23.5118644 C5.98525072,23.4594795 5.98323049,23.4057991 5.97033898,23.3542373 C5.95468749,23.2864604 5.9206761,23.2243016 5.8720339,23.1745763 C5.81903522,23.1221034 5.75136729,23.0869397 5.6779661,23.0737288 C5.58411296,23.057087 5.48773953,23.0614281 5.39576271,23.0864407 L5.39576271,23.0864407 Z M5.39576271,22.4550847 L4.73644068,22.5398305 C4.69153987,22.5491642 4.64477412,22.5416213 4.60508475,22.5186441 C4.57381133,22.4966265 4.55393918,22.4618502 4.55084746,22.4237288 C4.54388611,22.3853499 4.55445578,22.3458691 4.57966102,22.3161017 C4.6120325,22.2837644 4.65516514,22.2644603 4.70084746,22.2618644 L5.37881356,22.1771186 C5.4440857,22.1707169 5.50789883,22.1538336 5.56779661,22.1271186 C5.6152414,22.1051787 5.65358685,22.0674324 5.67627119,22.020339 C5.70020178,21.9606642 5.70666798,21.8954143 5.69491525,21.8322034 C5.69306919,21.7434986 5.64898826,21.6610043 5.57627119,21.6101695 C5.49201003,21.569535 5.39675559,21.5576282 5.30508475,21.5762712 L4.62711864,21.6610169 C4.5822197,21.670432 4.53542473,21.6628844 4.49576271,21.6398305 C4.46457801,21.6177323 4.44473163,21.5830012 4.44152542,21.5449153 C4.43540694,21.5068387 4.44589655,21.4679655 4.47033898,21.4381356 C4.50283988,21.4053644 4.54629707,21.3857483 4.59237288,21.3830508 L5.25169492,21.2983051 C5.34193085,21.285643 5.43349288,21.285643 5.52372881,21.2983051 C5.59903716,21.3106955 5.66960098,21.3431958 5.7279661,21.3923729 C5.78015429,21.436465 5.82209056,21.491416 5.85084746,21.5533898 C5.88279155,21.6258436 5.90364669,21.7026934 5.91271186,21.7813559 C5.92634309,21.8732259 5.92634309,21.9666046 5.91271186,22.0584746 C5.90170352,22.1309414 5.87255157,22.1994485 5.8279661,22.2576271 C5.78335147,22.314289 5.72501313,22.3586261 5.65847458,22.3864407 C5.57495851,22.4231791 5.48640157,22.4471752 5.39576271,22.4576271 L5.39576271,22.4550847 Z M4.61694915,20.0338983 L4.62627119,20.3389831 L5.63050847,20.3084746 C5.67643642,20.3033125 5.72264466,20.3153931 5.76016949,20.3423729 C5.78777722,20.3682901 5.80392299,20.4041376 5.80503624,20.441988 C5.80614948,20.4798383 5.79213848,20.5165728 5.76610169,20.5440678 C5.73064871,20.573907 5.68527679,20.5893335 5.63898305,20.5872881 L4.63559322,20.6186441 L4.64491525,20.9237288 C4.64905677,20.9619415 4.63878123,21.0003237 4.61610169,21.0313559 C4.59402491,21.0545702 4.56339167,21.0677119 4.53135593,21.0677119 C4.4993202,21.0677119 4.46868696,21.0545702 4.44661017,21.0313559 C4.42316479,21.0017588 4.41086637,20.9648636 4.41186441,20.9271186 L4.38474576,20.0381356 C4.38008091,19.9993555 4.39038606,19.9602565 4.41355932,19.9288136 C4.43465666,19.9040323 4.46576597,19.8900331 4.49830508,19.890678 C4.53022264,19.888604 4.56136845,19.9010623 4.58305085,19.9245763 C4.60772359,19.9554428 4.61983057,19.9944878 4.61694915,20.0338983 L4.61694915,20.0338983 Z M4.55084746,19.2940678 L4.94661017,19.3194915 L4.98474576,18.7161017 L4.58983051,18.6915254 C4.54400092,18.6917542 4.49967813,18.6751708 4.46525424,18.6449153 C4.43845442,18.6178595 4.42509729,18.5802732 4.42881356,18.5423729 C4.43032589,18.5035902 4.44818322,18.4672598 4.4779661,18.4423729 C4.51585549,18.416358 4.56211292,18.4054739 4.60762712,18.4118644 L5.6940678,18.4813559 C5.74041871,18.4804822 5.78532894,18.4974753 5.81949153,18.5288136 C5.8451749,18.5571243 5.85831422,18.5946202 5.85591988,18.63277 C5.85352555,18.6709197 5.8358012,18.7064786 5.80677966,18.7313559 C5.76819949,18.7564747 5.7219184,18.7669932 5.67627119,18.7610169 L5.21271186,18.7313559 L5.17372881,19.3338983 L5.63813559,19.3635593 C5.68457165,19.3630892 5.72943485,19.3803676 5.76355932,19.4118644 C5.78982727,19.4398956 5.80279033,19.4778588 5.79915254,19.5161017 C5.798504,19.5543874 5.78040185,19.5902796 5.75,19.6135593 C5.71183305,19.6389044 5.66572915,19.649451 5.62033898,19.6432203 L4.53305085,19.5762712 C4.48749303,19.576663 4.4433006,19.5607297 4.40847458,19.5313559 C4.35627745,19.4715251 4.36194577,19.3808321 4.42118644,19.3279661 C4.45849323,19.3005258 4.50488429,19.2883974 4.55084746,19.2940678 L4.55084746,19.2940678 Z M4.87966102,17.0728814 L4.77711864,17.6949153 L5.11610169,17.75 L5.21016949,17.1771186 C5.2129725,17.1428609 5.2283706,17.110857 5.25338983,17.0872881 C5.27721873,17.0682678 5.30852427,17.0613806 5.33813559,17.0686441 C5.36642608,17.0724525 5.39188314,17.0877881 5.40847458,17.1110169 C5.4258134,17.1413072 5.43096482,17.1770641 5.42288136,17.2110169 L5.32881356,17.7838983 L5.71610169,17.8483051 L5.8220339,17.2042373 C5.82522975,17.1683895 5.84188339,17.1350823 5.86864407,17.1110169 C5.89312098,17.0929794 5.9238471,17.0855959 5.95384712,17.0905428 C5.98384715,17.0954896 6.0105761,17.112347 6.0279661,17.1372881 C6.04526203,17.1685338 6.0501056,17.2051632 6.04152542,17.2398305 L5.91864407,17.990678 C5.91517978,18.0384747 5.89293845,18.0829573 5.85677966,18.1144068 C5.81572542,18.1380709 5.76695684,18.1444718 5.72118644,18.1322034 L4.69576271,17.9627119 C4.66230423,17.9584312 4.63019292,17.9468595 4.60169492,17.9288136 C4.57927626,17.9134602 4.563054,17.8906289 4.5559322,17.8644068 C4.54900052,17.8317194 4.54900052,17.7979416 4.5559322,17.7652542 L4.67542373,17.0364407 C4.67889584,17.0006092 4.69513851,16.9672215 4.72118644,16.9423729 C4.74497845,16.9251948 4.77464064,16.9182186 4.8035952,16.9229914 C4.83254977,16.9277641 4.85840371,16.9438913 4.87542373,16.9677966 C4.88978359,17.0010954 4.89129323,17.0385345 4.87966102,17.0728814 L4.87966102,17.0728814 Z M5.63474576,16.3466102 L5.61016949,16.440678 L6.03898305,16.5550847 C6.0849915,16.5629056 6.12624503,16.5880824 6.15423729,16.6254237 C6.17396395,16.6579881 6.17918689,16.6973138 6.16864407,16.7338983 C6.15933289,16.7708641 6.13422652,16.8018597 6.1,16.8186441 C6.05702249,16.8342495 6.00992667,16.8342495 5.96694915,16.8186441 L4.93898305,16.5457627 C4.89213739,16.5378568 4.85036353,16.5116338 4.82288136,16.4728814 C4.8027343,16.4299773 4.80089883,16.3807253 4.81779661,16.3364407 L4.93389831,15.8957627 C4.94740918,15.8437562 4.963819,15.7925462 4.98305085,15.7423729 C4.9980751,15.7031202 5.01924315,15.6665052 5.04576271,15.6338983 C5.10338771,15.5580319 5.18995373,15.5095303 5.28474576,15.5 C5.33331918,15.4948497 5.38242443,15.4985828 5.42966102,15.5110169 C5.51818432,15.530597 5.59565587,15.5837637 5.64576271,15.659322 C5.6942634,15.7474343 5.71466679,15.8482685 5.70423729,15.9483051 C5.74725094,15.9035769 5.79808872,15.8671 5.85423729,15.840678 C5.91521607,15.8100992 5.97873061,15.7848635 6.0440678,15.7652542 C6.10099998,15.7482341 6.15905062,15.7352081 6.21779661,15.7262712 C6.25094791,15.7193004 6.28502487,15.7178686 6.31864407,15.7220339 C6.33737001,15.7272895 6.35415694,15.7378917 6.36694915,15.7525424 C6.38130996,15.7686535 6.39123878,15.7882191 6.39576271,15.809322 C6.40117336,15.8330285 6.40117336,15.8576494 6.39576271,15.8813559 C6.38963833,15.9085762 6.37511176,15.9331825 6.35423729,15.9516949 C6.33424049,15.9692157 6.31088434,15.9824797 6.28559322,15.990678 C6.26016949,16 6.22288136,16.0118644 6.17288136,16.0254237 L5.96440678,16.0864407 C5.90256625,16.102011 5.84239376,16.1235822 5.78474576,16.1508475 C5.74739157,16.1678084 5.71457777,16.1933625 5.68898305,16.2254237 C5.66281005,16.261687 5.6443508,16.3029319 5.63474576,16.3466102 L5.63474576,16.3466102 Z M5.11440678,16.0423729 L5.04830508,16.2923729 L5.41610169,16.3898305 L5.47966102,16.1474576 C5.49565317,16.0922944 5.50476185,16.0353652 5.50677966,15.9779661 C5.50931797,15.9367294 5.49862997,15.8957587 5.47627119,15.8610169 C5.45133315,15.8273364 5.41480146,15.8040889 5.37372881,15.7957627 C5.33944618,15.7855416 5.3029267,15.7855416 5.26864407,15.7957627 C5.23494056,15.8076285 5.2054698,15.8291421 5.18389831,15.8576271 C5.15057999,15.9148962 5.12709108,15.9773424 5.11440678,16.0423729 L5.11440678,16.0423729 Z M5.46016949,14.7135593 L6.41355932,14.4991525 L5.64491525,14.2076271 C5.6034705,14.195138 5.56775946,14.1684298 5.5440678,14.1322034 C5.52904227,14.1001457 5.52768577,14.0633591 5.54030945,14.0302819 C5.55293314,13.9972046 5.57845363,13.9706754 5.61101695,13.9567797 C5.65232155,13.9441752 5.69687972,13.9478126 5.73559322,13.9669492 L6.75254237,14.3525424 C6.86610169,14.3957627 6.90423729,14.4644068 6.86864407,14.5584746 C6.8608156,14.5800395 6.84935031,14.6001037 6.83474576,14.6177966 C6.82008717,14.6346899 6.80222993,14.6485149 6.78220339,14.6584746 C6.76037283,14.669763 6.73734841,14.6785748 6.71355932,14.6847458 L6.63728814,14.7042373 L5.69745763,14.909322 L6.45508475,15.1966102 C6.49648424,15.2092685 6.53177781,15.236719 6.55423729,15.2737288 C6.56906786,15.3063009 6.56906786,15.3436991 6.55423729,15.3762712 C6.54260947,15.4106653 6.51617364,15.4380341 6.48220339,15.4508475 C6.44093238,15.4630524 6.39662209,15.4597367 6.35762712,15.4415254 L5.36101695,15.0635593 C5.32677813,15.0521918 5.29490034,15.0346734 5.26694915,15.0118644 C5.24411661,14.990363 5.22868829,14.9621766 5.22288136,14.9313559 C5.21571808,14.9003075 5.21808075,14.8678208 5.22966102,14.8381356 C5.23668329,14.8172132 5.24826104,14.79811 5.26355932,14.7822034 C5.27768908,14.7687707 5.29403044,14.7578764 5.31186441,14.75 C5.332654,14.7412318 5.35421638,14.7344227 5.37627119,14.729661 L5.46016949,14.7135593 Z M7.55762712,12.7644068 L7.37457627,12.7381356 L7.10338983,13.2305085 L7.22627119,13.3737288 C7.26174869,13.4114768 7.29222461,13.4536304 7.31694915,13.4991525 C7.32944206,13.5312011 7.32531986,13.5673496 7.3059322,13.5957627 C7.28911052,13.6263703 7.26072272,13.6489584 7.22711864,13.6584746 C7.19541691,13.6700595 7.16028151,13.6675939 7.13050847,13.6516949 C7.11329209,13.6418647 7.09759204,13.6295901 7.08389831,13.6152542 C7.06949153,13.6 7.05,13.5771186 7.02542373,13.5474576 L6.41016949,12.8050847 L6.34576271,12.7279661 C6.32400599,12.70172 6.30498112,12.6733247 6.28898305,12.6432203 C6.27554204,12.616998 6.26856835,12.5879409 6.26864346,12.5584746 C6.26932074,12.5247561 6.27865951,12.4917786 6.29576271,12.4627119 C6.31138821,12.4325741 6.33442792,12.4069096 6.36271186,12.3881356 C6.38704217,12.3727503 6.41459157,12.3631805 6.44322034,12.3601695 C6.47139123,12.3572065 6.49979521,12.3572065 6.5279661,12.3601695 L6.64237288,12.3754237 L7.59745763,12.4889831 C7.6490994,12.4917422 7.69986229,12.5035009 7.74745763,12.5237288 C7.77661142,12.5404294 7.79771989,12.5682681 7.8059322,12.6008475 C7.81933015,12.6374196 7.81591938,12.6780387 7.79661017,12.7118644 C7.78762603,12.7291529 7.77488501,12.7442104 7.75932203,12.7559322 C7.74500403,12.7654421 7.7288268,12.7717975 7.71186441,12.7745763 C7.68826134,12.7780311 7.66428103,12.7780311 7.64067797,12.7745763 L7.55762712,12.7644068 Z M6.95423729,13.0652542 L7.15338983,12.7033898 L6.55338983,12.6101695 L6.95423729,13.0652542 Z M8.22542373,11.2762712 C8.29165803,11.3206328 8.34349704,11.3833698 8.37457627,11.4567797 C8.40552086,11.5345357 8.41347016,11.6195512 8.39745763,11.7016949 C8.37737948,11.8010134 8.33635433,11.894909 8.27711864,11.9771186 C8.214595,12.0764498 8.12687399,12.1574455 8.02288136,12.2118644 C7.95759328,12.2428066 7.88574141,12.2573515 7.81355932,12.2542373 C7.74779525,12.255737 7.68301554,12.2380698 7.62711864,12.2033898 C7.5999362,12.185578 7.58125007,12.1573956 7.57542373,12.1254237 C7.56868265,12.0923334 7.57605458,12.0579311 7.59576271,12.0305085 C7.61092708,12.0071608 7.63467309,11.9907212 7.66186441,11.9847458 C7.6948157,11.9787175 7.7287001,11.9801655 7.76101695,11.9889831 C7.80131181,11.99846 7.84250932,12.0035741 7.88389831,12.0042373 C7.9223337,12.0034838 7.9599489,11.9929865 7.99322034,11.9737288 C8.03635369,11.9479478 8.07267918,11.9122035 8.09915254,11.8694915 C8.14223422,11.8120499 8.16543803,11.742141 8.16525424,11.670339 C8.16607561,11.6119629 8.13780167,11.5570035 8.08983051,11.5237288 C8.05637444,11.4993693 8.01460713,11.4893086 7.97372881,11.4957627 C7.93170177,11.5039333 7.89220643,11.5219386 7.85847458,11.5483051 C7.82118644,11.5765537 7.77457627,11.6163842 7.71864407,11.6677966 C7.65474512,11.7278479 7.58489274,11.781231 7.51016949,11.8271186 C7.45148977,11.8636836 7.38433422,11.8844142 7.31525424,11.8872881 C7.2440276,11.8871862 7.17464272,11.8646509 7.11694915,11.8228814 C7.05599298,11.781865 7.00968672,11.722498 6.98474576,11.6533898 C6.95917412,11.5809298 6.95534472,11.5025744 6.97372881,11.4279661 C6.99661685,11.3365525 7.03658452,11.2502913 7.09152542,11.1737288 C7.13193767,11.1111353 7.18265413,11.0558343 7.24152542,11.0101695 C7.28774931,10.9736056 7.34074118,10.9465337 7.39745763,10.9305085 C7.44326732,10.9166388 7.49143498,10.9123124 7.53898305,10.9177966 C7.57778993,10.9228272 7.6149118,10.9367479 7.64745763,10.9584746 C7.67522685,10.9769458 7.6946875,11.0055287 7.70169492,11.0381356 C7.71105861,11.0708505 7.70514102,11.1060446 7.68559322,11.1338983 C7.67173706,11.1564632 7.64999097,11.1730748 7.62457627,11.1805085 C7.59280181,11.1848326 7.56058802,11.1848326 7.52881356,11.1805085 C7.47841035,11.171554 7.42666864,11.1735774 7.37711864,11.1864407 C7.32125702,11.2087569 7.27463957,11.2493977 7.24491525,11.3016949 C7.20774824,11.3505151 7.18698302,11.4098443 7.18559322,11.4711864 C7.18281511,11.5181109 7.20423784,11.5631945 7.24237288,11.590678 C7.26320847,11.6059435 7.28859664,11.6137093 7.31440678,11.6127119 C7.34166938,11.6110111 7.36825279,11.6034984 7.39237288,11.590678 C7.41820345,11.5773545 7.44262131,11.5614545 7.46525424,11.5432203 C7.48728814,11.5262712 7.5220339,11.4957627 7.57033898,11.4533898 C7.61864407,11.4110169 7.68644068,11.3525424 7.73983051,11.3127119 C7.78828263,11.2774394 7.84131215,11.2489289 7.89745763,11.2279661 C7.9474985,11.2093971 8.00130756,11.203289 8.05423729,11.2101695 C8.1143511,11.220277 8.17124801,11.2443711 8.22033898,11.2805085 L8.22542373,11.2762712 Z M9.08389831,10.2228814 C9.14619804,10.2730642 9.1922074,10.3406036 9.21610169,10.4169492 C9.24020955,10.4968078 9.24020955,10.5820058 9.21610169,10.6618644 C9.18740155,10.7618914 9.13673445,10.8542503 9.06779661,10.9322034 C8.99654034,11.0253815 8.90177245,11.0979199 8.79322034,11.1423729 C8.72522614,11.1671447 8.65229006,11.175281 8.58050847,11.1661017 C8.51625261,11.1599174 8.45509845,11.1355145 8.40423729,11.0957627 C8.37835693,11.0749135 8.36209922,11.044411 8.3592202,11.0113021 C8.35634117,10.9781933 8.36708988,10.9453424 8.38898305,10.920339 C8.40638347,10.8988774 8.43116138,10.8846754 8.45847458,10.8805085 C8.49184258,10.8776984 8.52541832,10.8823296 8.55677966,10.8940678 C8.59601348,10.907517 8.63668495,10.9163339 8.6779661,10.920339 C8.71628921,10.9231289 8.75470945,10.9164345 8.78983051,10.9008475 C8.83509819,10.8789705 8.87458091,10.8467456 8.90508475,10.8067797 C8.95341182,10.7535191 8.98314982,10.6860138 8.98983051,10.6144068 C8.995525,10.5564832 8.9723984,10.4994587 8.9279661,10.4618644 C8.89679152,10.4337986 8.85533846,10.4199809 8.81355932,10.4237288 C8.77073348,10.4278896 8.72949852,10.4421186 8.69322034,10.4652542 C8.65338983,10.4898305 8.60338983,10.5254237 8.54322034,10.5711864 C8.47427656,10.625396 8.39986196,10.6722602 8.32118644,10.7110169 C8.25928884,10.7420834 8.19033524,10.7564 8.12118644,10.7525424 C8.04984576,10.7458033 7.98262778,10.7160608 7.92966102,10.6677966 C7.87310925,10.6222496 7.83245995,10.5599404 7.81355932,10.4898305 C7.79423755,10.4153727 7.79778118,10.3368224 7.82372881,10.2644068 C7.85426338,10.1748399 7.90173535,10.0919797 7.96355932,10.020339 C8.0102819,9.96207436 8.06608068,9.91171238 8.12881356,9.87118644 C8.17834377,9.8393355 8.23361424,9.81745761 8.29152542,9.80677966 C8.33819087,9.79697256 8.3863854,9.79697256 8.43305085,9.80677966 C8.47123625,9.81504315 8.50694317,9.83217086 8.53728814,9.85677966 C8.56335391,9.87792725 8.58033517,9.90825093 8.58474576,9.94152542 C8.59021827,9.97481686 8.58093862,10.0088423 8.55932203,10.0347458 C8.54360938,10.0561903 8.52024007,10.0707582 8.4940678,10.0754237 C8.46190267,10.0774063 8.42962215,10.0745496 8.39830508,10.0669492 C8.34890539,10.053447 8.2972064,10.0505588 8.24661017,10.0584746 C8.1892058,10.0756864 8.1393216,10.1118301 8.10508475,10.1610169 C8.06323106,10.2068261 8.03684491,10.2646384 8.02966102,10.3262712 C8.02298187,10.3728515 8.0401796,10.4196675 8.07542373,10.4508475 C8.09475778,10.4677609 8.11925507,10.4776196 8.14491525,10.4788136 C8.17221135,10.4800167 8.19943057,10.4750941 8.22457627,10.4644068 C8.25281803,10.4538296 8.27981539,10.4401888 8.30508475,10.4237288 C8.32881356,10.4076271 8.36694915,10.3813559 8.41864407,10.3432203 C8.4768358,10.2984968 8.53737394,10.2569122 8.6,10.2186441 C8.65118105,10.1868886 8.70650723,10.1623625 8.76440678,10.1457627 C8.81646621,10.1330452 8.87082193,10.1330452 8.92288136,10.1457627 C8.98099923,10.1603505 9.0349504,10.1881963 9.08050847,10.2271186 L9.08389831,10.2228814 Z M9.02966102,8.86016949 C9.11845909,8.76737415 9.23010403,8.69956884 9.35338983,8.66355932 C9.46505822,8.6333179 9.58328304,8.63775133 9.69237288,8.67627119 C9.8146675,8.72135108 9.92467808,8.79449796 10.0135593,8.88983051 C10.0840581,8.95921222 10.1427415,9.03965135 10.1872881,9.1279661 C10.2270323,9.20713756 10.2498338,9.29372555 10.2542373,9.38220339 C10.2574415,9.46958753 10.2406292,9.55654795 10.2050847,9.63644068 C10.16479,9.72643653 10.1072016,9.80763618 10.0355932,9.87542373 C9.96622995,9.94710219 9.88363406,10.0046603 9.79237288,10.0449153 C9.71204828,10.0786973 9.62517297,10.0940453 9.53813559,10.0898305 C9.44929648,10.0837958 9.36269932,10.0592599 9.28389831,10.0177966 C9.19689045,9.97206393 9.11766312,9.91285795 9.04915254,9.84237288 C8.97986483,9.77196302 8.92260625,9.69065582 8.87966102,9.60169492 C8.84051313,9.52243582 8.81856428,9.43579564 8.81525424,9.34745763 C8.81304672,9.26143643 8.83013145,9.17601277 8.86525424,9.09745763 C8.90390361,9.01040133 8.95851763,8.93135473 9.02627119,8.86440678 L9.02966102,8.86016949 Z M9.81186441,9.08728814 C9.75015621,9.02167042 9.6753867,8.96970705 9.59237288,8.93474576 C9.52365298,8.90562202 9.44773679,8.89794179 9.37457627,8.91271186 C9.30282129,8.92941348 9.23728473,8.96614922 9.18559322,9.01864407 C9.14849988,9.05604558 9.11963402,9.10078766 9.10084746,9.15 C9.0814282,9.19807048 9.07358995,9.25003519 9.0779661,9.30169492 C9.08285362,9.36101931 9.0998718,9.41870804 9.1279661,9.47118644 C9.19700818,9.59754965 9.30004966,9.70205895 9.42542373,9.77288136 C9.47769039,9.80204655 9.53536914,9.82021536 9.59491525,9.82627119 C9.64720922,9.83154032 9.7000121,9.8245773 9.74915254,9.8059322 C9.79846891,9.78735159 9.84325172,9.75845945 9.88050847,9.72118644 C9.93063682,9.67280389 9.96641738,9.61150769 9.98389831,9.5440678 C10.0012604,9.4714017 9.99623826,9.39518343 9.96949153,9.32542373 C9.93401616,9.23638132 9.87898882,9.15644686 9.80847458,9.09152542 L9.81186441,9.08728814 Z M11.3559322,8.13559322 C11.3854192,8.17516606 11.4069995,8.22005313 11.4194915,8.26779661 C11.4350787,8.32690823 11.4396747,8.38838029 11.4330508,8.44915254 C11.4264425,8.52132287 11.4044829,8.59124677 11.3686441,8.65423729 C11.3261738,8.72971244 11.2684512,8.79551613 11.1991525,8.84745763 C11.1468426,8.88977508 11.0899974,8.92615599 11.029661,8.9559322 C10.9763163,8.98185382 10.9190422,8.99874968 10.8601695,9.0059322 C10.801201,9.01361757 10.7413729,9.01161376 10.6830508,9 C10.6265494,8.98775143 10.5716619,8.9689816 10.5194915,8.9440678 C10.4649642,8.91705627 10.4137713,8.88378088 10.3669492,8.84491525 C10.3167569,8.80342224 10.2712853,8.75652961 10.2313559,8.70508475 C10.1665185,8.62683416 10.1162838,8.53755987 10.0830508,8.44152542 C10.0538561,8.35692498 10.0428816,8.26710707 10.0508475,8.1779661 C10.0590085,8.09207277 10.085293,8.00888679 10.1279661,7.93389831 C10.1713974,7.85717599 10.2288979,7.78932538 10.2974576,7.73389831 C10.3776063,7.66795664 10.4723108,7.62205691 10.5737288,7.6 C10.6595513,7.58028149 10.7489118,7.58202794 10.8338983,7.60508475 C10.8996157,7.6204846 10.9588759,7.65604075 11.0033898,7.70677966 C11.0222505,7.73084686 11.0316011,7.76101001 11.029661,7.79152542 C11.0280927,7.82286259 11.0129274,7.85195513 10.9881356,7.87118644 C10.9665858,7.89082459 10.9384777,7.90170514 10.909322,7.90169492 C10.8741016,7.89614743 10.8398562,7.88558843 10.8076271,7.87033898 C10.74666,7.84103765 10.6794578,7.82707356 10.6118644,7.82966102 C10.547488,7.83575142 10.4865416,7.86149094 10.4372881,7.90338983 C10.3508596,7.96748091 10.3009322,8.06954763 10.3033898,8.17711864 C10.3127877,8.30928398 10.3665385,8.4344038 10.4559322,8.53220339 C10.5104148,8.60571318 10.5789771,8.66764973 10.6576271,8.71440678 C10.779877,8.78732494 10.9351646,8.77330118 11.0423729,8.67966102 C11.1009189,8.63644217 11.1440029,8.57553026 11.1652542,8.5059322 C11.1838184,8.43447181 11.1799725,8.3590325 11.1542373,8.28983051 C11.1418324,8.25874037 11.134673,8.22580711 11.1330508,8.19237288 C11.1345653,8.16020546 11.151226,8.13065627 11.1779661,8.11271186 C11.2018781,8.09355702 11.232158,8.08417027 11.2627119,8.08644068 C11.2998598,8.08696629 11.3345127,8.10523783 11.3559322,8.13559322 L11.3559322,8.13559322 Z M11.7983051,8.19067797 L11.1864407,7.29322034 C11.1572868,7.25755911 11.1430188,7.21202309 11.1466102,7.16610169 C11.1516707,7.12869264 11.173096,7.09546788 11.2050847,7.07542373 C11.2362391,7.05248318 11.2757935,7.04413968 11.3135593,7.05254237 C11.3579143,7.06632788 11.3952482,7.09668065 11.4177966,7.13728814 L12.0313559,8.03728814 C12.060035,8.07353208 12.0742298,8.11913642 12.0711864,8.16525424 C12.0651245,8.20340532 12.042881,8.23707944 12.0101695,8.25762712 C11.979669,8.27987015 11.9409466,8.28761462 11.9042373,8.27881356 C11.8586428,8.26527402 11.8200673,8.2345959 11.7966102,8.19322034 L11.7983051,8.19067797 Z M13.0898305,7.37542373 L12.9457627,7.25762712 L12.4576271,7.54237288 L12.4898305,7.72881356 C12.5001393,7.77954424 12.5044063,7.83131693 12.5025424,7.88305085 C12.4968806,7.91684502 12.474581,7.94551588 12.4432203,7.95932203 C12.4130221,7.97697656 12.3770294,7.98185692 12.3432203,7.97288136 C12.3100236,7.9666841 12.281215,7.9462393 12.2644068,7.91694915 C12.2544648,7.8998289 12.247313,7.88123439 12.2432203,7.86186441 C12.236724,7.8338882 12.2316329,7.80560418 12.2279661,7.77711864 L12.0838983,6.82372881 L12.0686441,6.72457627 C12.0627195,6.69159477 12.0607282,6.65802691 12.0627119,6.62457627 C12.0639894,6.59465001 12.072729,6.56551806 12.0881356,6.53983051 C12.1058573,6.51136398 12.1306821,6.48799942 12.1601695,6.4720339 C12.2136304,6.43717819 12.2813857,6.43268257 12.3389831,6.46016949 C12.3646952,6.47237379 12.3891123,6.48713761 12.4118644,6.50423729 L12.5016949,6.57627119 L13.2644068,7.16949153 C13.3073392,7.19835943 13.3449078,7.23449407 13.3754237,7.27627119 C13.3915147,7.30556838 13.3948843,7.34018339 13.3847458,7.3720339 C13.3766924,7.40809003 13.3535454,7.43895275 13.3211864,7.45677966 C13.3045956,7.46734251 13.2856974,7.47373881 13.2661017,7.47542373 C13.2490912,7.47627948 13.2320834,7.47368507 13.2161017,7.46779661 C13.1943216,7.45789564 13.1738311,7.4453737 13.1550847,7.43050847 L13.0898305,7.37542373 Z M12.4177966,7.32118644 L12.7745763,7.11355932 L12.3084746,6.72457627 L12.4177966,7.32118644 Z M13.8135593,5.91016949 L13.5381356,6.04152542 L13.9661017,6.94915254 C13.9890568,6.9894772 13.9963004,7.03686245 13.9864407,7.08220339 C13.9754892,7.1183562 13.949124,7.1478232 13.9144068,7.16271186 C13.8801778,7.18037484 13.8399477,7.18223162 13.8042373,7.16779661 C13.7626378,7.1472984 13.7302691,7.11190459 13.7135593,7.06864407 L13.2830508,6.16186441 L13.0076271,6.29322034 C12.9743009,6.31240621 12.9350096,6.31845101 12.8974576,6.31016949 C12.8674801,6.30075584 12.8430573,6.27880619 12.8305085,6.25 C12.8148966,6.22151846 12.8133324,6.18741832 12.8262712,6.15762712 C12.8448131,6.1237227 12.874873,6.09757057 12.9110169,6.08389831 L13.7152542,5.70254237 C13.7487581,5.6829806 13.7884566,5.67691975 13.8262712,5.68559322 C13.8569264,5.69414598 13.8819343,5.7163405 13.8940678,5.74576271 C13.9075392,5.77448769 13.9075392,5.8077157 13.8940678,5.83644068 C13.8768704,5.869822 13.8483208,5.89596735 13.8135593,5.91016949 L13.8135593,5.91016949 Z M14.590678,6.67881356 L14.190678,5.66186441 C14.1703583,5.62079242 14.1664198,5.57352974 14.179661,5.52966102 C14.1929877,5.49419016 14.2211637,5.46632378 14.2567797,5.45338983 C14.2920176,5.43721366 14.3325587,5.43721366 14.3677966,5.45338983 C14.4082908,5.47607321 14.4386017,5.51335556 14.4525424,5.55762712 L14.8525424,6.57457627 C14.8728075,6.61626701 14.8767376,6.66403217 14.8635593,6.70847458 C14.8493019,6.74442073 14.8202878,6.77250881 14.7838983,6.78559322 C14.7494527,6.80133174 14.7098693,6.80133174 14.6754237,6.78559322 C14.633401,6.76288404 14.6020342,6.72451304 14.5881356,6.67881356 L14.590678,6.67881356 Z M15.3974576,5.05677966 C15.5193365,5.01534229 15.6499482,5.0065764 15.7762712,5.03135593 C15.8898321,5.05638071 15.9930303,5.11552008 16.0720339,5.20084746 C16.1594859,5.29795539 16.2232954,5.41397251 16.2584746,5.53983051 C16.2889694,5.63395085 16.3038554,5.73242743 16.3025424,5.83135593 C16.3014297,5.9192117 16.281793,6.0058442 16.2449153,6.08559322 C16.2076167,6.16464442 16.1528491,6.23419064 16.0847458,6.28898305 C16.0069026,6.34988089 15.9179655,6.39506897 15.8228814,6.4220339 C15.728462,6.45319569 15.6287937,6.46529415 15.529661,6.45762712 C15.4423887,6.45043965 15.3578338,6.42379906 15.2822034,6.37966102 C15.2062267,6.33347032 15.1409411,6.27165117 15.090678,6.19830508 C15.0344702,6.1178229 14.991551,6.02883701 14.9635593,5.93474576 C14.9337125,5.83994846 14.919683,5.74088252 14.9220339,5.64152542 C14.9236057,5.55344276 14.9441274,5.46673148 14.9822034,5.38728814 C15.0196045,5.30997186 15.074083,5.24216355 15.1415254,5.18898305 C15.2169038,5.12934247 15.3028762,5.08448731 15.3949153,5.05677966 L15.3974576,5.05677966 Z M15.990678,5.61949153 C15.9657461,5.53273681 15.923354,5.45198991 15.8661017,5.38220339 C15.8172578,5.32387336 15.7515272,5.28212555 15.6779661,5.26271186 C15.6064818,5.24424649 15.5312088,5.24659877 15.4610169,5.26949153 C15.4100997,5.28444531 15.3629908,5.31016732 15.3228814,5.34491525 C15.2835981,5.37868748 15.2525779,5.42101406 15.2322034,5.46864407 C15.2104706,5.52248648 15.1995289,5.58007445 15.2,5.63813559 C15.2003151,5.70952749 15.2117517,5.7804344 15.2338983,5.84830508 C15.2537618,5.91787718 15.2843555,5.98392527 15.3245763,6.0440678 C15.357755,6.09421483 15.4007004,6.1371603 15.4508475,6.17033898 C15.4952396,6.1984612 15.5453081,6.21640481 15.5974576,6.22288136 C15.6502104,6.22863894 15.7035838,6.22344585 15.7542373,6.20762712 C15.8195937,6.18721135 15.8781768,6.14942529 15.9237288,6.09830508 C15.9714431,6.04134698 16.0009651,5.97137981 16.0084746,5.89745763 C16.0206952,5.80417507 16.0126006,5.70935301 15.9847458,5.61949153 L15.990678,5.61949153 Z M16.8516949,4.85677966 L17.529661,5.55508475 L17.3728814,4.74576271 C17.3618146,4.70423165 17.3657146,4.66013073 17.3838983,4.62118644 C17.4021534,4.59046217 17.4332856,4.56960365 17.4686441,4.56440678 C17.5037378,4.55611303 17.5407021,4.56387864 17.5694915,4.58559322 C17.6014966,4.61476208 17.6219492,4.65446436 17.6271186,4.69745763 L17.8322034,5.76525424 C17.8550847,5.88389831 17.8169492,5.95338983 17.7177966,5.9720339 C17.6951054,5.9762053 17.6718438,5.9762053 17.6491525,5.9720339 C17.6272803,5.96834773 17.606295,5.96058605 17.5872881,5.94915254 C17.5663046,5.9362305 17.5467094,5.92117915 17.5288136,5.90423729 L17.4720339,5.84915254 L16.8042373,5.15762712 L16.9576271,5.95254237 C16.96836,5.99433839 16.9635413,6.03861041 16.9440678,6.07711864 C16.9245839,6.1072005 16.8936542,6.12801467 16.8584495,6.13473557 C16.8232448,6.14145646 16.7868226,6.13350038 16.7576271,6.11271186 C16.7258585,6.08406404 16.7054126,6.04497643 16.7,6.00254237 L16.4983051,4.95508475 C16.4901657,4.9198048 16.4884433,4.8833478 16.4932203,4.84745763 C16.4997698,4.81701331 16.5157894,4.78942399 16.5389831,4.76864407 C16.5624227,4.74613407 16.5918397,4.73083728 16.6237288,4.72457627 C16.6455492,4.72023802 16.6680101,4.72023802 16.6898305,4.72457627 C16.7086056,4.72932935 16.7263931,4.73736244 16.7423729,4.74830508 C16.7608067,4.76150699 16.7778443,4.7765568 16.7932203,4.79322034 L16.8516949,4.85677966 Z M19.2745763,4.38644068 C19.4028826,4.3768732 19.5314543,4.40112649 19.6474576,4.45677966 C19.7517398,4.50854678 19.8373336,4.59147497 19.8923729,4.6940678 C19.9524769,4.80936919 19.9852432,4.93695475 19.9881356,5.06694915 C19.9939462,5.16564556 19.9839327,5.26463611 19.9584746,5.36016949 C19.9327256,5.44600569 19.8891163,5.52542665 19.8305085,5.59322034 C19.7748495,5.66063707 19.7043747,5.71429074 19.6245763,5.75 C19.4402657,5.82613773 19.235009,5.83484013 19.0449153,5.77457627 C18.962072,5.74598077 18.8867534,5.69905147 18.8245763,5.63728814 C18.7626287,5.57347108 18.7149638,5.49720734 18.6847458,5.41355932 C18.6508892,5.32165475 18.6317276,5.2249888 18.6279661,5.12711864 C18.6222013,5.02798543 18.6330865,4.9285869 18.6601695,4.83305085 C18.6838547,4.74784538 18.7254602,4.66867937 18.7822034,4.60084746 C18.8381037,4.5350961 18.9082367,4.48293103 18.9872881,4.44830508 C19.0761629,4.40948678 19.1716966,4.38819313 19.2686441,4.38559322 L19.2745763,4.38644068 Z M19.7042373,5.0779661 C19.702403,4.98801331 19.6819142,4.89942088 19.6440678,4.81779661 C19.6122652,4.75027153 19.5608869,4.69387355 19.4966102,4.6559322 C19.3831119,4.59551089 19.2477886,4.59205716 19.1313559,4.64661017 C19.0852944,4.66987511 19.04504,4.70317904 19.0135593,4.7440678 C18.9784099,4.79109447 18.9530509,4.84469416 18.9389831,4.90169492 C18.9213761,4.97085044 18.9147979,5.04235215 18.9194915,5.11355932 C18.9215303,5.1857635 18.9346789,5.25722282 18.9584746,5.32542373 C18.9778796,5.38247576 19.0087366,5.43496151 19.0491525,5.47966102 C19.0854865,5.51685638 19.1294264,5.54576421 19.1779661,5.56440678 C19.2942728,5.6071652 19.4239179,5.59272531 19.5279661,5.52542373 C19.5893681,5.48405151 19.6366747,5.42491826 19.6635593,5.3559322 C19.6956562,5.26671672 19.7075243,5.17148295 19.6983051,5.07711864 L19.7042373,5.0779661 Z M21.1754237,4.64830508 L20.6245763,4.62118644 L20.6067797,4.97372881 L21.0669492,4.99745763 C21.1016278,4.99608142 21.1355409,5.00789043 21.1618644,5.03050847 C21.1818453,5.05164044 21.1917306,5.08036955 21.1889831,5.10932203 C21.1886501,5.13820247 21.1756335,5.16547527 21.1533898,5.18389831 C21.1251685,5.20331037 21.0907099,5.21147162 21.0567797,5.20677966 L20.5966102,5.18389831 L20.5737288,5.63898305 C20.5747733,5.68531053 20.5584492,5.73035288 20.5279661,5.76525424 C20.5008085,5.79196343 20.4633942,5.80556864 20.4254237,5.80254237 C20.3870775,5.80175386 20.3509369,5.78445578 20.3262712,5.75508475 C20.2992951,5.71727645 20.287776,5.67059352 20.2940678,5.62457627 L20.3474576,4.56271186 C20.34767,4.52901506 20.3551874,4.4957651 20.3694915,4.46525424 C20.3822158,4.44091385 20.4032719,4.42196334 20.4288136,4.41186441 C20.4603356,4.40083512 20.4938777,4.39678693 20.5271186,4.4 L21.1864407,4.43305085 C21.2221876,4.4316584 21.2570949,4.44410359 21.2838983,4.46779661 C21.3050066,4.48830729 21.315614,4.5173215 21.3127119,4.54661017 C21.3125688,4.57644079 21.2992262,4.60467745 21.2762712,4.62372881 C21.2452576,4.6455414 21.2068244,4.65408211 21.1694915,4.64745763 L21.1754237,4.64830508 Z M23.2576271,5.68898305 C23.2469552,5.73708811 23.2274126,5.78278331 23.2,5.82372881 C23.1649843,5.87411584 23.1217224,5.91823728 23.0720339,5.95423729 C23.0127793,5.99582952 22.9455453,6.02468534 22.8745763,6.03898305 C22.7907343,6.05648636 22.704181,6.05648636 22.620339,6.03898305 C22.5544924,6.02805543 22.4901923,6.00927752 22.4288136,5.98305085 C22.3746119,5.96029942 22.3245112,5.92880754 22.2805085,5.88983051 C22.2357683,5.85068116 22.19795,5.80426777 22.1686441,5.75254237 C22.1400503,5.70220266 22.1181155,5.64836255 22.1033898,5.59237288 C22.0873061,5.53378818 22.0784829,5.47344894 22.0771186,5.41271186 C22.0755217,5.34735188 22.0809196,5.28200853 22.0932203,5.21779661 C22.1094656,5.11747269 22.1439315,5.02096817 22.1949153,4.93305085 C22.239369,4.85547735 22.2997298,4.78818509 22.3720339,4.73559322 C22.4421065,4.68511927 22.5221333,4.65016174 22.6067797,4.63305085 C22.6938538,4.61650548 22.7832649,4.61650548 22.870339,4.63305085 C22.9727172,4.64987981 23.0695239,4.69116076 23.1525424,4.75338983 C23.2244724,4.80456407 23.2826854,4.8726732 23.3220339,4.95169492 C23.3534865,5.0118183 23.3656205,5.0801826 23.3567797,5.14745763 C23.3512607,5.17867495 23.3339698,5.20658299 23.3084746,5.22542373 C23.2843974,5.24395543 23.2536942,5.25163126 23.2237288,5.24661017 C23.1944446,5.24338381 23.1674821,5.22914519 23.1483051,5.20677966 C23.1290993,5.17705267 23.1147928,5.14443386 23.1059322,5.11016949 C23.0873438,5.04487462 23.0533385,4.98500201 23.0067797,4.93559322 C22.9604731,4.89040195 22.9012251,4.86077794 22.8372881,4.85084746 C22.7321459,4.82809142 22.6225001,4.85779373 22.5432203,4.93050847 C22.4495106,5.02415291 22.3898435,5.14647039 22.3737288,5.2779661 C22.3555812,5.36773609 22.3555812,5.46023001 22.3737288,5.55 C22.3867921,5.61879082 22.4208374,5.68184846 22.4711864,5.73050847 C22.522126,5.77576933 22.5851434,5.80521672 22.6525424,5.81525424 C22.7237229,5.8303878 22.7978637,5.82267716 22.8644068,5.79322034 C22.9302433,5.75988487 22.9843455,5.70726086 23.0194915,5.64237288 C23.0348455,5.61279714 23.0548776,5.58589676 23.0788136,5.56271186 C23.1040933,5.54257601 23.1374391,5.53565518 23.1686441,5.5440678 C23.2348111,5.55609653 23.2787752,5.61938961 23.2669492,5.68559322 L23.2576271,5.68898305 Z M24.4355932,5.01101695 C24.5598777,5.04407714 24.6732775,5.10925277 24.7644068,5.2 C24.8440495,5.28231717 24.8966757,5.38697822 24.9152542,5.5 C24.9345393,5.62895306 24.923809,5.76061703 24.8838983,5.88474576 C24.8569066,5.97981483 24.8148475,6.06994161 24.759322,6.15169492 C24.7097171,6.22470917 24.6453337,6.2864941 24.570339,6.33305085 C24.4960475,6.37986949 24.4119353,6.40887369 24.3245763,6.41779661 C24.1249453,6.42971804 23.9276686,6.36957271 23.7686441,6.24830508 C23.699535,6.19400216 23.6436174,6.12475707 23.6050847,6.04576271 C23.5681853,5.96594733 23.5479977,5.87942917 23.5457627,5.79152542 C23.5437903,5.69336482 23.5575229,5.59552004 23.5864407,5.50169492 C23.6130985,5.40593631 23.6557935,5.31538851 23.7127119,5.23389831 C23.7634639,5.16142953 23.8286753,5.10025775 23.9042373,5.05423729 C23.9784462,5.01062689 24.0616345,4.98453994 24.1474576,4.9779661 C24.2425526,4.97011361 24.3382767,4.9801747 24.429661,5.00762712 L24.4355932,5.01101695 Z M24.6152542,5.8059322 C24.6426926,5.72008102 24.6519287,5.62945181 24.6423729,5.53983051 C24.6353871,5.46577546 24.605802,5.3956587 24.5576271,5.33898305 C24.508768,5.28376315 24.444856,5.24400221 24.3737288,5.22457627 C24.3227612,5.20883365 24.2690091,5.20420981 24.2161017,5.21101695 C24.1646828,5.2177837 24.1154447,5.23603075 24.0720339,5.26440678 C24.0237102,5.29740564 23.9825009,5.33976759 23.9508475,5.38898305 C23.9128504,5.44896301 23.88427,5.51441203 23.8661017,5.58305085 C23.8448546,5.65196012 23.8340008,5.72365227 23.8338983,5.79576271 C23.8334597,5.85580009 23.8455837,5.91526545 23.8694915,5.97033898 C23.8903726,6.01883655 23.9222942,6.06178564 23.9627119,6.09576271 C24.0033409,6.12983676 24.050699,6.15495965 24.1016949,6.16949153 C24.2423915,6.21362674 24.3958264,6.16883311 24.490678,6.0559322 C24.5481511,5.98108295 24.5886369,5.89461679 24.609322,5.80254237 L24.6152542,5.8059322 Z M25.6610169,5.61101695 L25.2822034,6.54322034 L25.8084746,6.75677966 C25.8447045,6.76847909 25.8750475,6.79366373 25.8932203,6.82711864 C25.9067848,6.85552598 25.9067848,6.88854182 25.8932203,6.91694915 C25.8823355,6.94670046 25.8587064,6.97001859 25.8288136,6.98050847 C25.7926023,6.99019526 25.7541188,6.98658743 25.720339,6.97033898 L25.0940678,6.71610169 C25.0485937,6.70323045 25.0101495,6.67271921 24.9872881,6.63135593 C24.9731661,6.58608301 24.977428,6.53707109 24.9991525,6.49491525 L25.3991525,5.50847458 C25.4134309,5.46460047 25.44368,5.42769663 25.4838983,5.40508475 C25.518268,5.38900138 25.5580032,5.38900138 25.5923729,5.40508475 C25.6287624,5.41816915 25.6577765,5.44625724 25.6720339,5.48220339 C25.6814019,5.52469982 25.6753963,5.56914145 25.6550847,5.60762712 L25.6610169,5.61101695 Z M26.8559322,6.14152542 L26.3940678,7.03389831 L26.9025424,7.28813559 C26.9373331,7.3030799 26.9651848,7.3306289 26.9805085,7.36525424 C26.9917509,7.39462626 26.9895835,7.4274462 26.9745763,7.45508475 C26.9614445,7.48357763 26.9362687,7.50471287 26.9059322,7.51271186 C26.8688802,7.51966098 26.8305667,7.51272231 26.7983051,7.49322034 L26.1957627,7.18644068 C26.1510833,7.16930198 26.1152921,7.13473442 26.0966102,7.09067797 C26.0866241,7.04438733 26.0951404,6.99602679 26.120339,6.9559322 L26.6025424,6.00677966 C26.6214759,5.96626154 26.6542244,5.9338135 26.6949153,5.91525424 C26.7304442,5.90177896 26.7700961,5.90456697 26.8033898,5.92288136 C26.8384836,5.93943999 26.8647351,5.97032415 26.8754237,6.00762712 C26.8833578,6.05277686 26.8743016,6.09926551 26.85,6.13813559 L26.8559322,6.14152542 Z M28.5059322,7.16864407 L27.9711864,6.82966102 L27.790678,7.11779661 L28.2830508,7.42542373 C28.3136529,7.44152659 28.3372028,7.4683976 28.3491525,7.50084746 C28.3578535,7.52968165 28.3528564,7.56091329 28.3355932,7.58559322 C28.3209524,7.6102927 28.2966998,7.62779145 28.2686441,7.63389831 C28.2339558,7.63847023 28.198877,7.6290142 28.1711864,7.60762712 L27.6788136,7.3 L27.4644068,7.62711864 L28.0169492,7.97372881 C28.0491576,7.99013965 28.0737593,8.01838601 28.0855932,8.05254237 C28.0926286,8.08167987 28.0870931,8.11243276 28.070339,8.13728814 C28.0553888,8.16348991 28.0296596,8.18177934 28,8.18728814 C27.9641756,8.19117896 27.9281938,8.18150318 27.8991525,8.16016949 L27.2542373,7.75677966 C27.2089647,7.73916696 27.1753556,7.70027294 27.1644944,7.65292474 C27.1536332,7.60557654 27.1669301,7.55592272 27.2,7.52033898 L27.7508475,6.63898305 C27.7680461,6.60993938 27.7911416,6.58482311 27.8186441,6.56525424 C27.8412747,6.55003851 27.8688375,6.54398074 27.8957627,6.54830508 C27.9288427,6.55357027 27.9603705,6.56600786 27.9881356,6.58474576 L28.6144068,6.97711864 C28.6458439,6.99410202 28.6701859,7.02174974 28.6830508,7.05508475 C28.6912563,7.08395029 28.6862937,7.11496619 28.6694915,7.13983051 C28.6544743,7.16560492 28.6292106,7.18378248 28.6,7.18983051 C28.5647773,7.19423786 28.5291673,7.18548626 28.5,7.16525424 L28.5059322,7.16864407 Z M29.5694915,8.71355932 L29.4067797,8.92288136 C29.3902459,8.94617569 29.3699045,8.96651704 29.3466102,8.98305085 C29.3274151,8.9958561 29.3052197,9.00344925 29.2822034,9.00508475 C29.253854,9.0064599 29.2254392,9.00475501 29.1974576,9 C29.1102939,8.98682027 29.0249693,8.96349821 28.9432203,8.93050847 C28.8650067,8.89663437 28.7915132,8.85276616 28.7245763,8.8 C28.6458958,8.74001785 28.5784688,8.66656553 28.5254237,8.58305085 C28.4770372,8.50606734 28.4466226,8.41916868 28.4364407,8.32881356 C28.425955,8.23953564 28.4349172,8.14904589 28.4627119,8.06355932 C28.4940629,7.96722686 28.5425845,7.87736141 28.6059322,7.79830508 C28.6666646,7.71852058 28.7406154,7.64972915 28.8245763,7.59491525 C28.9779012,7.49377597 29.1694284,7.46936563 29.3432203,7.52881356 C29.4410813,7.56120732 29.5323518,7.61086078 29.6127119,7.67542373 C29.6787332,7.7262148 29.7359885,7.78747794 29.7822034,7.85677966 C29.8199074,7.91169428 29.846932,7.97321848 29.8618644,8.03813559 C29.8740631,8.08920288 29.8763645,8.14213447 29.8686441,8.1940678 C29.8637133,8.23343565 29.8491603,8.27098258 29.8262712,8.30338983 C29.8061627,8.33066101 29.7752847,8.34795266 29.7415254,8.35084746 C29.7034687,8.35561042 29.6652434,8.34339218 29.6370047,8.31743875 C29.6087661,8.29148531 29.5933731,8.25442432 29.5949153,8.21610169 C29.6002141,8.16600483 29.6021958,8.11561251 29.6008475,8.06525424 C29.5974147,8.0252161 29.5858819,7.98629302 29.5669492,7.95084746 C29.5407819,7.9047299 29.5049308,7.86483113 29.4618644,7.83389831 C29.4155753,7.7962652 29.3618612,7.7688306 29.3042373,7.75338983 C29.2506965,7.74109694 29.1950662,7.74109694 29.1415254,7.75338983 C29.0834821,7.76656069 29.0287083,7.79135303 28.9805085,7.82627119 C28.9240097,7.86610943 28.8739877,7.91441645 28.8322034,7.96949153 C28.74293,8.07010419 28.6927133,8.19940482 28.690678,8.33389831 C28.6984195,8.45315747 28.7610223,8.56208634 28.8601695,8.62881356 C28.9084249,8.66708248 28.9621244,8.69793112 29.0194915,8.72033898 C29.0780334,8.74309591 29.1388262,8.75957245 29.2008475,8.76949153 L29.3381356,8.59237288 L29.1686441,8.45932203 C29.134995,8.43603678 29.1078634,8.40452914 29.0898305,8.36779661 C29.0797932,8.33842064 29.086621,8.3059077 29.1076271,8.28305085 C29.1250722,8.2599221 29.1516214,8.24541267 29.1805085,8.24322034 C29.2136936,8.24226588 29.2460367,8.25375222 29.2711864,8.27542373 L29.5254237,8.47033898 C29.5521647,8.49017318 29.5763585,8.51322842 29.5974576,8.53898305 C29.6143105,8.5609999 29.6224569,8.58845614 29.620339,8.61610169 C29.6110059,8.65233014 29.591267,8.68503201 29.5635593,8.71016949 L29.5694915,8.71355932 Z M30.909322,9.14152542 L30.4525424,8.7059322 L30.2177966,8.95169492 L30.6415254,9.35254237 C30.6676527,9.37388861 30.685123,9.40400995 30.690678,9.43728814 C30.6929352,9.46598833 30.6823879,9.49421806 30.6618644,9.51440678 C30.6423975,9.53601001 30.6146735,9.54833179 30.5855932,9.54830508 C30.5509318,9.54564367 30.5186887,9.52952208 30.4957627,9.50338983 L30.0720339,9.10338983 L29.8008475,9.38813559 L30.2728814,9.83813559 C30.3009227,9.86064568 30.3191483,9.89314789 30.3237288,9.92881356 C30.3248729,9.95914184 30.3137377,9.98864992 30.2928427,10.0106615 C30.2719476,10.0326731 30.2430586,10.0453279 30.2127119,10.0457627 C30.1769105,10.0424041 30.1436593,10.0257785 30.1194915,9.99915254 L29.5686441,9.47457627 C29.5310091,9.44513598 29.5068655,9.40173872 29.5016949,9.35423729 C29.505158,9.30686709 29.5270665,9.26274596 29.5627119,9.23135593 L30.2788136,8.47881356 C30.3024419,8.45335442 30.3313715,8.43339304 30.3635593,8.42033898 C30.3889317,8.41062049 30.4170005,8.41062049 30.4423729,8.42033898 C30.4740931,8.43231363 30.5029592,8.45078797 30.5271186,8.47457627 L31.0627119,8.98305085 C31.0849663,9.00604373 31.098717,9.03593656 31.1016949,9.06779661 C31.1042539,9.09720406 31.0933465,9.12618663 31.0720339,9.14661017 C31.0524696,9.16916183 31.0239184,9.1818857 30.9940678,9.18135593 C30.9596354,9.17829452 30.9274517,9.16295462 30.9033898,9.13813559 L30.909322,9.14152542 Z M31.3949153,10.7983051 C31.3352298,10.8515923 31.2613155,10.8863408 31.1822034,10.8983051 C31.0992653,10.9085049 31.0151425,10.8946805 30.9398305,10.8584746 C30.8485506,10.8143922 30.7678912,10.7510788 30.7033898,10.6728814 C30.6227374,10.5875209 30.5662817,10.482215 30.5398305,10.3677966 C30.5260891,10.297056 30.5298715,10.2240272 30.5508475,10.1550847 C30.5670411,10.0923742 30.6008611,10.0356153 30.6483051,9.99152542 C30.6726973,9.96987336 30.7047419,9.95888663 30.7372881,9.96101695 C30.7703236,9.96367675 30.800884,9.97956813 30.8220339,10.0050847 C30.8409104,10.0255709 30.8509576,10.0526681 30.85,10.0805085 C30.847637,10.1136407 30.837785,10.1458045 30.8211864,10.1745763 C30.8013959,10.2113316 30.7860344,10.2503043 30.7754237,10.290678 C30.766132,10.3276741 30.766132,10.3663937 30.7754237,10.4033898 C30.7896445,10.4516647 30.8152159,10.4958336 30.85,10.5322034 C30.8946183,10.5886405 30.9565562,10.6288406 31.0262712,10.6466102 C31.0823944,10.6620648 31.1425279,10.6483836 31.1864407,10.6101695 C31.2187127,10.5841888 31.2391756,10.5463172 31.2432203,10.5050847 C31.245997,10.4623918 31.2384388,10.4196588 31.2211864,10.3805085 C31.1974126,10.3226069 31.1705376,10.2660278 31.140678,10.2110169 C31.0983969,10.1341933 31.0640394,10.0532684 31.0381356,9.96949153 C31.0177025,9.90358012 31.0147819,9.83348444 31.029661,9.76610169 C31.0466953,9.69670356 31.0859852,9.63479218 31.1415254,9.58983051 C31.1957591,9.54197996 31.2636327,9.51234086 31.3355932,9.50508475 C31.4119353,9.49844772 31.4885469,9.51435934 31.5559322,9.55084746 C31.6393397,9.59591739 31.7135136,9.6562915 31.7745763,9.72881356 C31.8247559,9.78385307 31.8654246,9.8468609 31.8949153,9.91525424 C31.9184669,9.96879247 31.9316932,10.0262978 31.9338983,10.0847458 C31.935345,10.1325454 31.9269808,10.1801345 31.909322,10.2245763 C31.8953965,10.2609371 31.8730308,10.2934689 31.8440678,10.3194915 C31.8187414,10.3415247 31.7861027,10.3533109 31.7525424,10.3525424 C31.7198544,10.3521832 31.6889325,10.33765 31.6677966,10.3127119 C31.6487896,10.2939031 31.6381073,10.2682655 31.6381356,10.2415254 C31.6409662,10.2096484 31.6489812,10.1784472 31.6618644,10.1491525 C31.6830536,10.102281 31.6940309,10.0514385 31.6940678,10 C31.6864893,9.94051219 31.6586581,9.88544821 31.6152542,9.8440678 C31.5770209,9.79521693 31.5241621,9.75987873 31.4644068,9.74322034 C31.4196822,9.72897182 31.3707779,9.7385609 31.3347458,9.76864407 C31.3147535,9.78501039 31.300991,9.80774845 31.2957627,9.83305085 C31.289872,9.85956374 31.289872,9.88704643 31.2957627,9.91355932 C31.3014645,9.94276931 31.310566,9.97121145 31.3228814,9.99830508 C31.3347458,10.0237288 31.3550847,10.0652542 31.3838983,10.1228814 C31.4186164,10.1876248 31.450013,10.2540951 31.4779661,10.3220339 C31.5011,10.3775207 31.5162232,10.4360163 31.5228814,10.4957627 C31.5286154,10.5489671 31.521345,10.6027682 31.5016949,10.6525424 C31.4759381,10.7082617 31.4373057,10.7570606 31.3889831,10.7949153 L31.3949153,10.7983051 Z M32.1872881,12.3635593 L32.2957627,12.2135593 L31.9855932,11.7440678 L31.8016949,11.7872881 C31.7516168,11.8006758 31.7001267,11.8080721 31.6483051,11.809322 C31.6143153,11.8051601 31.5845376,11.7845692 31.5686441,11.7542373 C31.5493605,11.7250358 31.5423577,11.6894128 31.5491525,11.6550847 C31.553393,11.6209298 31.5718588,11.5901534 31.6,11.570339 C31.616686,11.5595653 31.6350002,11.5515528 31.6542373,11.5466102 C31.6745763,11.540678 31.7033898,11.5338983 31.7389831,11.5262712 L32.6830508,11.3262712 L32.7805085,11.3050847 C32.8133003,11.2974428 32.8468389,11.2934636 32.8805085,11.2932171 C32.9099864,11.2930447 32.9390669,11.300024 32.9652542,11.3135593 C32.9947542,11.3298857 33.0195599,11.353524 33.0372881,11.3822034 C33.0568435,11.4096927 33.0688261,11.4418412 33.0720339,11.4754237 C33.0747971,11.504287 33.0704321,11.5333872 33.059322,11.5601695 C33.0489221,11.586461 33.035559,11.6114813 33.0194915,11.6347458 C33.0031073,11.6590395 32.9810734,11.6903955 32.9533898,11.7288136 L32.4084746,12.5220339 C32.3819022,12.566325 32.3481016,12.6058545 32.3084746,12.6389831 C32.2799945,12.6569803 32.2453742,12.662495 32.2127119,12.6542373 C32.1568455,12.6430686 32.1136822,12.5985564 32.1042373,12.5423729 C32.1024729,12.5252543 32.1042027,12.5079557 32.109322,12.4915254 C32.1175114,12.4692492 32.1286257,12.4481606 32.1423729,12.4288136 C32.1533898,12.4016949 32.1686441,12.379661 32.1813559,12.3601695 L32.1872881,12.3635593 Z M32.2016949,11.6898305 L32.4237288,12.0338983 L32.7847458,11.5457627 L32.2016949,11.6898305 Z M33.6050847,12.6542373 L33.1330508,13.5084746 L33.8610169,13.1279661 C33.8977832,13.1054814 33.9412284,13.0964928 33.9838983,13.1025424 C34.0184025,13.1112976 34.0472599,13.13488 34.0627119,13.1669492 C34.0808619,13.1981011 34.0839761,13.2357826 34.0711864,13.2694915 C34.0521712,13.3077524 34.0199665,13.3378503 33.9805085,13.3542373 L33.0169492,13.8584746 C32.909322,13.9144068 32.8322034,13.8974576 32.7855932,13.8084746 C32.7748717,13.7880862 32.7677068,13.7660183 32.7644068,13.7432203 C32.7612229,13.7211309 32.7626659,13.6986208 32.7686441,13.6771186 C32.7747877,13.6533208 32.7836007,13.6302934 32.7949153,13.6084746 C32.8059322,13.5855932 32.8186441,13.5618644 32.8313559,13.5381356 L33.3016949,12.7 L32.5838983,13.0754237 C32.5466811,13.0975015 32.502821,13.1056127 32.4601695,13.0983051 C32.4252895,13.0893708 32.3961352,13.0654891 32.3805085,13.0330508 C32.3629544,13.0013656 32.3601669,12.9635792 32.3728814,12.929661 C32.3917768,12.8919183 32.4232453,12.8619483 32.4618644,12.8449153 L33.4067797,12.3516949 C33.4383359,12.3338028 33.4727364,12.3214759 33.5084746,12.3152542 C33.5395123,12.3128471 33.5705478,12.319941 33.5974576,12.3355932 C33.6451869,12.3627917 33.676774,12.4114358 33.6822034,12.4661017 C33.6830755,12.485332 33.6804923,12.5045629 33.6745763,12.5228814 C33.6673425,12.5445262 33.6576762,12.5652805 33.6457627,12.5847458 C33.6271186,12.6033898 33.6135593,12.6271186 33.5991525,12.6508475 L33.6050847,12.6542373 Z M34.3677966,13.890678 L34.5016949,14.229661 C34.5332319,14.3054413 34.5551539,14.384873 34.5669492,14.4661017 C34.5754811,14.5364926 34.567353,14.6079033 34.5432203,14.6745763 C34.4813559,14.8533898 34.3338983,14.9898305 34.1,15.0822034 C34.0294838,15.1108106 33.9562189,15.1321085 33.8813559,15.1457627 C33.8161794,15.1573702 33.7496541,15.1593688 33.6838983,15.1516949 C33.6214737,15.1439428 33.5607647,15.1259019 33.5042373,15.0983051 C33.4603095,15.0763298 33.4200108,15.0477491 33.3847458,15.0135593 C33.349089,14.9792105 33.3182954,14.9401483 33.2932203,14.8974576 C33.2643744,14.8477765 33.2394403,14.7959249 33.2186441,14.7423729 L33.0838983,14.4033898 C33.0670513,14.3674446 33.0600333,14.3276761 33.0635593,14.2881356 C33.0676704,14.2599282 33.0825547,14.2344122 33.1050847,14.2169492 C33.1351474,14.1957128 33.1679263,14.1786107 33.2025424,14.1661017 L34.1449153,13.7932203 C34.1870544,13.7713179 34.2362486,13.7673457 34.2813559,13.7822034 C34.3195159,13.806309 34.3473157,13.8437782 34.359322,13.8872881 L34.3677966,13.890678 Z M34.1983051,14.0728814 L33.3254237,14.4186441 L33.4033898,14.6161017 C33.4211864,14.659322 33.4355932,14.6923729 33.4474576,14.7161017 C33.4604322,14.7412897 33.4766741,14.7646552 33.4957627,14.7855932 C33.5141116,14.8072997 33.5365777,14.8251574 33.5618644,14.8381356 C33.670339,14.8946328 33.8144068,14.8881356 33.9940678,14.8186441 C34.0946345,14.7859319 34.1849055,14.7275041 34.2559322,14.6491525 C34.300632,14.596296 34.3236456,14.5284665 34.320339,14.459322 C34.3131485,14.3858051 34.2948619,14.3138017 34.2661017,14.2457627 L34.1983051,14.0728814 Z M34.3432203,17.0389831 C34.2661132,17.0591837 34.1847651,17.0562363 34.109322,17.0305085 C34.0307868,17.0016193 33.9622349,16.9507203 33.9118644,16.8838983 C33.8511713,16.8028656 33.8084165,16.7098452 33.7864407,16.6110169 C33.7543453,16.4979303 33.7525916,16.3783863 33.7813559,16.2644068 C33.8019616,16.1953618 33.838876,16.1322876 33.8889831,16.0805085 C33.9319451,16.0322314 33.987812,15.9972411 34.05,15.979661 C34.0816458,15.9717123 34.1151503,15.9765857 34.1432203,15.9932203 C34.1723083,16.0104252 34.1928907,16.0389949 34.2,16.0720339 C34.2073621,16.0987901 34.2040187,16.1273614 34.190678,16.1516949 C34.1732918,16.1804482 34.1495125,16.2048075 34.1211864,16.2228814 C34.0869021,16.2473826 34.0556143,16.2758261 34.0279661,16.3076271 C34.0031106,16.3369597 33.9856714,16.3718381 33.9771186,16.409322 C33.9681351,16.4586802 33.9707461,16.5094509 33.9847458,16.5576271 C33.9985966,16.6283799 34.0352023,16.6926631 34.0889831,16.740678 C34.1321256,16.7796944 34.191739,16.7949148 34.2483051,16.7813559 C34.2887061,16.7730794 34.32411,16.7489682 34.3466102,16.7144068 C34.3685636,16.6775223 34.3816207,16.6360298 34.3847458,16.5932203 C34.3847458,16.5466102 34.3898305,16.4847458 34.3889831,16.409322 C34.3862621,16.3215915 34.3927954,16.2338186 34.4084746,16.1474576 C34.4201959,16.0795598 34.4494036,16.015887 34.4932203,15.9627119 C34.5376654,15.9059125 34.5996357,15.8653935 34.6694915,15.8474576 C34.7395629,15.8286371 34.813824,15.8327958 34.8813559,15.859322 C34.9523716,15.8888111 35.0133084,15.9382671 35.0567797,16.0016949 C35.109572,16.0787365 35.1475107,16.1649607 35.1686441,16.2559322 C35.1881075,16.3279467 35.1955522,16.4026797 35.190678,16.4771186 C35.1865635,16.5359485 35.1713221,16.5934632 35.1457627,16.6466102 C35.1254133,16.6895169 35.0965853,16.7278581 35.0610169,16.759322 C35.031635,16.7852974 34.9964817,16.8038909 34.9584746,16.8135593 C34.9261188,16.8219962 34.891746,16.8174334 34.8627119,16.8008475 C34.8320864,16.7859139 34.8099366,16.7578367 34.8025424,16.7245763 C34.7942374,16.6993826 34.796374,16.6719116 34.8084746,16.6483051 C34.8259674,16.6215202 34.8473941,16.5975223 34.8720339,16.5771186 C34.9125156,16.5454432 34.9455041,16.5052202 34.9686441,16.459322 C34.9888203,16.4028788 34.9888203,16.341189 34.9686441,16.2847458 C34.9580126,16.2242371 34.9283193,16.1687106 34.8838983,16.1262712 C34.8507218,16.0928681 34.8027431,16.0787943 34.7567797,16.0889831 C34.7317063,16.0941951 34.7092319,16.1079794 34.6932203,16.1279661 C34.6760553,16.1492927 34.6638923,16.1741977 34.6576271,16.2008475 C34.6496743,16.2284692 34.6448419,16.2568952 34.6432203,16.2855932 C34.6432203,16.3135593 34.6432203,16.3601695 34.6432203,16.4245763 C34.644458,16.4978405 34.6416288,16.5711171 34.6347458,16.6440678 C34.6301024,16.7040901 34.6169776,16.7631517 34.5957627,16.8194915 C34.5759444,16.8693455 34.5445762,16.9137837 34.5042373,16.9491525 C34.4568991,16.9909513 34.3997614,17.0201032 34.3381356,17.0338983 L34.3432203,17.0389831 Z M34.5915254,18.5059322 C34.5423453,18.5113165 34.4925897,18.50729 34.4449153,18.4940678 C34.3861019,18.477016 34.3307409,18.4497658 34.2813559,18.4135593 C34.2227079,18.3711249 34.1736259,18.3168459 34.1372881,18.2542373 C34.0931818,18.1795897 34.0643736,18.0969102 34.0525424,18.0110169 C34.0425861,17.9448399 34.040028,17.8777601 34.0449153,17.8110169 C34.0495061,17.7527368 34.0632331,17.695541 34.0855932,17.6415254 C34.1094469,17.5870679 34.1417674,17.5367279 34.1813559,17.4923729 C34.219838,17.4493536 34.2637018,17.4114712 34.3118644,17.379661 C34.3620414,17.3447191 34.4164254,17.3162457 34.4737288,17.2949153 C34.5352189,17.2728403 34.5988379,17.2572196 34.6635593,17.2483051 C34.7639072,17.2320014 34.8663584,17.2337233 34.9661017,17.2533898 C35.0537625,17.2710768 35.1366658,17.3071845 35.209322,17.359322 C35.2786548,17.409849 35.3364332,17.4745609 35.3788136,17.5491525 C35.4227698,17.6260042 35.4515406,17.7105903 35.4635593,17.7983051 C35.4796294,17.900737 35.4715031,18.0055084 35.4398305,18.1042373 C35.4131919,18.1880968 35.3666725,18.2642723 35.3042373,18.3262712 C35.257445,18.3756028 35.1964098,18.4090833 35.129661,18.4220339 C35.0982637,18.4265322 35.0663485,18.4186294 35.040678,18.4 C35.0145392,18.3830588 34.9971813,18.3554721 34.9932203,18.3245763 C34.9865719,18.2956384 34.9914342,18.2652493 35.0067797,18.2398305 C35.029029,18.2123049 35.0553152,18.1883045 35.0847458,18.1686441 C35.1406645,18.1303503 35.1865818,18.0792019 35.2186441,18.0194915 C35.2461224,17.9608382 35.2547099,17.8950996 35.2432203,17.8313559 C35.2315002,17.7240641 35.1682597,17.6292033 35.0737288,17.5771186 C34.9550035,17.518755 34.8201759,17.5017524 34.690678,17.5288136 C34.5994674,17.5395616 34.5113114,17.5683707 34.4313559,17.6135593 C34.3705064,17.6477012 34.3216746,17.6997884 34.2915254,17.7627119 C34.2639046,17.8255279 34.2553583,17.8950775 34.2669492,17.9627119 C34.2739243,18.0344938 34.3036114,18.1021803 34.3516949,18.1559322 C34.4036666,18.2082598 34.4705774,18.2431955 34.5432203,18.2559322 C34.576401,18.2609553 34.6084925,18.2715569 34.6381356,18.2872881 C34.665275,18.3045771 34.6823367,18.3339611 34.6838983,18.3661017 C34.6887456,18.3980368 34.6806434,18.4305855 34.6613904,18.4565214 C34.6421374,18.4824572 34.613327,18.4996337 34.5813559,18.5042373 L34.5915254,18.5059322 Z M35.429661,19.0822034 L35.0338983,19.0983051 L35.0576271,19.7016949 L35.4525424,19.6864407 C35.4980608,19.6815651 35.5438079,19.6933029 35.5813559,19.7194915 C35.6108744,19.7439588 35.6279596,19.7803036 35.6279661,19.8186441 C35.6309083,19.8570152 35.6169846,19.8947638 35.5898305,19.9220339 C35.5549796,19.9524256 35.5097524,19.9682096 35.4635593,19.9661017 L34.3754237,20.009322 C34.3293757,20.0144071 34.2830977,20.0020058 34.2457627,19.9745763 C34.2166174,19.9495401 34.1998949,19.9129983 34.2,19.8745763 C34.1967233,19.8364105 34.2107166,19.7987839 34.2381356,19.7720339 C34.2737197,19.7430203 34.3185074,19.7276903 34.3644068,19.7288136 L34.8288136,19.7110169 L34.8050847,19.1067797 L34.340678,19.1254237 C34.2946299,19.1305088 34.248352,19.1181075 34.2110169,19.090678 C34.1822352,19.0653698 34.1655927,19.0290026 34.1652542,18.990678 C34.1619465,18.952343 34.1762983,18.9145916 34.2042373,18.8881356 C34.2393351,18.8589305 34.2840425,18.8438267 34.329661,18.8457627 L35.4177966,18.8025424 C35.4632059,18.7974975 35.5089172,18.8089253 35.5466102,18.8347458 C35.5765564,18.8592482 35.5937126,18.8960559 35.5932203,18.9347458 C35.5962781,18.9731329 35.5823371,19.0109284 35.5550847,19.0381356 C35.5187373,19.0690378 35.4710492,19.0831904 35.4237288,19.0771186 L35.429661,19.0822034 Z M35.5881356,21.0440678 C35.5834582,21.1727164 35.5448673,21.2978443 35.4762712,21.4067797 C35.4136051,21.5046483 35.3216765,21.580267 35.2135593,21.6228814 C35.0921541,21.6706061 34.9612456,21.6891829 34.8313559,21.6771186 C34.7328271,21.6719244 34.6357984,21.6507441 34.5440678,21.6144068 C34.4618566,21.5819189 34.3873722,21.5325513 34.3254237,21.4694915 C34.2646538,21.4067951 34.2193815,21.3307608 34.1932203,21.2474576 C34.1640714,21.1529217 34.1534251,21.0536519 34.1618644,20.9550847 C34.1664973,20.8558481 34.1906893,20.7585043 34.2330508,20.6686441 C34.2705259,20.5892267 34.325937,20.5196003 34.3949153,20.4652542 C34.4647828,20.4108777 34.5453587,20.3718893 34.6313559,20.3508475 C34.7269372,20.3274686 34.825586,20.3191764 34.9237288,20.3262712 C35.0227637,20.3316396 35.1201798,20.3537015 35.2118644,20.3915254 C35.291557,20.4238486 35.3636929,20.472324 35.4237288,20.5338983 C35.482952,20.5965272 35.5270199,20.6719065 35.5525424,20.7542373 C35.5804794,20.8463993 35.5908289,20.9429944 35.5830508,21.0389831 L35.5881356,21.0440678 Z M34.8525424,21.3940678 C34.9421821,21.4024187 35.0325747,21.3917333 35.1177966,21.3627119 C35.1888317,21.3388592 35.2509111,21.2939255 35.2957627,21.2338983 C35.3683948,21.1281339 35.386628,20.9942138 35.3449153,20.8728814 C35.3269368,20.8240037 35.2979381,20.7799257 35.2601695,20.7440678 C35.2173148,20.7042032 35.1668796,20.6733657 35.1118644,20.6533898 C34.9761655,20.6039122 34.8291602,20.5942099 34.6881356,20.6254237 C34.6294458,20.6382159 34.5740437,20.6630314 34.5254237,20.6983051 C34.4831499,20.7297184 34.4481696,20.7699024 34.4228814,20.8161017 C34.3752497,20.9040352 34.3649359,21.0074163 34.3942565,21.1030269 C34.4235771,21.1986374 34.4900743,21.2784632 34.5788136,21.3245763 C34.6626124,21.3653258 34.7542914,21.3873056 34.8474576,21.3889831 L34.8525424,21.3940678 Z M35.3822034,22.7415254 C35.363854,22.8688405 35.3120978,22.9890203 35.2322034,23.0898305 C35.1588088,23.1798801 35.0593425,23.2450069 34.9474576,23.2762712 C34.8212789,23.309949 34.689024,23.3140095 34.5610169,23.2881356 C34.4637335,23.2720047 34.3696257,23.24054 34.2822034,23.1949153 C34.2040635,23.1531952 34.1356198,23.0954368 34.0813559,23.0254237 C34.0277554,22.9562655 33.9909155,22.8756238 33.9737288,22.7898305 C33.9386503,22.5932988 33.9750216,22.3907015 34.0762712,22.2186441 C34.1207713,22.1443292 34.1816373,22.0811445 34.2542373,22.0338983 C34.330061,21.9883643 34.4147016,21.9594767 34.5025424,21.9491525 C34.5997623,21.9357061 34.6985287,21.9382826 34.7949153,21.9567797 C34.892902,21.972569 34.9874782,22.0049542 35.0745763,22.0525424 C35.1522967,22.0945275 35.2204121,22.1522524 35.2745763,22.2220339 C35.3261837,22.2909206 35.36153,22.3705947 35.3779661,22.4550847 C35.3952732,22.5480985 35.3949858,22.6435328 35.3771186,22.7364407 L35.3822034,22.7415254 Z M34.6127119,23.009322 C34.7009861,23.0281355 34.7922342,23.0281355 34.8805085,23.009322 C34.9535781,22.9939209 35.0199734,22.9559807 35.070339,22.9008475 C35.1195372,22.8458795 35.1518958,22.7779264 35.1635593,22.7050847 C35.1732446,22.6528288 35.1718007,22.5991178 35.159322,22.5474576 C35.1469882,22.4969731 35.1232119,22.4500003 35.0898305,22.4101695 C35.0518256,22.3655893 35.0051059,22.3292517 34.9525424,22.3033898 C34.8888853,22.2709361 34.8205462,22.2486329 34.75,22.2372881 C34.6793253,22.2239418 34.6070376,22.2213703 34.5355932,22.229661 C34.4758671,22.2359748 34.418128,22.25474 34.3661017,22.2847458 C34.3205378,22.3110752 34.2814463,22.347271 34.2516949,22.390678 C34.184004,22.494587 34.169543,22.6244214 34.2127119,22.740678 C34.2409203,22.8096294 34.2890053,22.8686294 34.3508475,22.9101695 C34.4287437,22.9594972 34.5163,22.9915722 34.6076271,23.0042373 L34.6127119,23.009322 Z M34.9228814,24.0262712 L33.9542373,23.7542373 L33.8008475,24.3008475 C33.7930451,24.3378498 33.7715545,24.3705397 33.740678,24.3923729 C33.7142114,24.4091721 33.6818066,24.4138013 33.6516949,24.4050847 C33.6209447,24.3976142 33.5951446,24.3767876 33.5813559,24.3483051 C33.5680084,24.3130867 33.5680084,24.2742015 33.5813559,24.2389831 L33.7635593,23.5881356 C33.7674086,23.5395023 33.7951968,23.4959695 33.8376897,23.4720036 C33.8801826,23.4480376 33.931813,23.4467782 33.9754237,23.4686441 L35,23.7559322 C35.045,23.7651085 35.0850893,23.7904281 35.1127119,23.8271186 C35.1328872,23.8595506 35.1378425,23.8991929 35.1262712,23.9355932 C35.116744,23.9721936 35.0920909,24.00301 35.0584746,24.020339 C35.0130836,24.0407038 34.9613394,24.0416224 34.9152542,24.0228814 L34.9228814,24.0262712 Z M33.5144068,25.6415254 C33.439369,25.61475 33.3739166,25.5663978 33.3262712,25.5025424 C33.2774867,25.4345854 33.2495151,25.3539093 33.2457627,25.270339 C33.2411812,25.1693159 33.2582281,25.0684794 33.2957627,24.9745763 C33.3328119,24.8631608 33.3985817,24.7634831 33.4864407,24.6855932 C33.5423653,24.6395288 33.6086936,24.6078192 33.679661,24.5932203 C33.7424832,24.5782155 33.8082563,24.5811518 33.8694915,24.6016949 C33.9000086,24.6127563 33.9247629,24.6356769 33.9381356,24.6652542 C33.9513699,24.6963922 33.9513699,24.7315739 33.9381356,24.7627119 C33.9283455,24.7886525 33.9093373,24.8100744 33.8847458,24.8228814 C33.8544092,24.836534 33.8213925,24.8431952 33.7881356,24.8423729 C33.7464904,24.8426434 33.705,24.8474745 33.6644068,24.8567797 C33.6274461,24.8668357 33.5936292,24.8860764 33.5661017,24.9127119 C33.5302784,24.9478734 33.5035239,24.9912039 33.4881356,25.0389831 C33.4595682,25.1052796 33.4536121,25.1791349 33.4711864,25.2491525 C33.4838182,25.306036 33.5247841,25.3524427 33.579661,25.3720339 C33.6178541,25.3881858 33.6609595,25.3881858 33.6991525,25.3720339 C33.7380127,25.354041 33.7720083,25.3270188 33.7983051,25.2932203 C33.8366518,25.2453335 33.8725727,25.1955534 33.9059322,25.1440678 C33.9532337,25.0702488 34.0080453,25.0015214 34.0694915,24.9389831 C34.1180084,24.8899428 34.1780221,24.8538181 34.2440678,24.8338983 C34.3133904,24.816418 34.3865026,24.8217677 34.4525424,24.8491525 C34.5213255,24.8733693 34.5806636,24.918763 34.6220339,24.9788136 C34.6640943,25.043036 34.6864799,25.1181455 34.6864407,25.1949153 C34.68705,25.2895454 34.6692029,25.3833865 34.6338983,25.4711864 C34.6094131,25.5416535 34.5733227,25.6075328 34.5271186,25.6661017 C34.4906378,25.7124412 34.4457961,25.751534 34.3949153,25.7813559 C34.3535678,25.8055893 34.3077232,25.8211591 34.2601695,25.8271186 C34.2212851,25.8318158 34.1818413,25.8274654 34.1449153,25.8144068 C34.1138516,25.8023381 34.088448,25.7790515 34.0737288,25.7491525 C34.056801,25.7196843 34.0543029,25.684086 34.0669492,25.6525424 C34.0742653,25.627252 34.0913392,25.6059096 34.1144068,25.5932203 C34.1441943,25.5809197 34.1755837,25.5729297 34.2076271,25.5694915 C34.2587246,25.5661733 34.3084765,25.5517105 34.3533898,25.5271186 C34.4025492,25.4924699 34.4381859,25.4418598 34.4542373,25.3838983 C34.4786452,25.3269674 34.484285,25.2637419 34.470339,25.2033898 C34.461643,25.1568916 34.4296215,25.1181455 34.3855932,25.1008475 C34.3614433,25.0924521 34.3351669,25.0924521 34.3110169,25.1008475 C34.2849179,25.1087693 34.2608967,25.1223717 34.240678,25.140678 C34.2184959,25.1594334 34.1983303,25.180451 34.1805085,25.2033898 C34.1635593,25.2262712 34.1364407,25.2635593 34.1,25.3169492 C34.0635593,25.370339 34.0152542,25.4423729 33.9694915,25.4940678 C33.9318298,25.5411194 33.8875907,25.5825043 33.8381356,25.6169492 C33.7939682,25.6471994 33.743036,25.6661171 33.6898305,25.6720339 C33.6277869,25.6757829 33.5657785,25.6641381 33.509322,25.6381356 L33.5144068,25.6415254 Z M17.5915254,34.9635593 L17.5915254,34.1016949 C17.4313559,34.2237288 17.3245763,34.2847458 17.2686441,34.2847458 C17.2418429,34.2845974 17.2163305,34.2732243 17.1983051,34.2533898 C17.1787283,34.2342009 17.1677275,34.2079212 17.1677966,34.1805085 C17.1661722,34.1535394 17.1775046,34.1274121 17.1983051,34.1101695 C17.2320238,34.0874348 17.2677686,34.0678603 17.3050847,34.0516949 C17.370504,34.0219355 17.4317565,33.9837595 17.4872881,33.9381356 C17.532647,33.898574 17.5733093,33.8539309 17.6084746,33.8050847 C17.6432203,33.7559322 17.6669492,33.7262712 17.6771186,33.7144068 C17.6942825,33.7012961 17.7158046,33.6952335 17.7372881,33.6974576 C17.7688244,33.6967829 17.798769,33.7112824 17.8177966,33.7364407 C17.8396689,33.7675978 17.8504155,33.805211 17.8483051,33.8432203 L17.8483051,34.9228814 C17.8483051,35.0491525 17.8050847,35.1118644 17.7186441,35.1118644 C17.6837401,35.1133728 17.6499455,35.099421 17.6262712,35.0737288 C17.5993539,35.0418021 17.5851703,35.0010622 17.5864407,34.959322 L17.5915254,34.9635593 Z M18.3228814,34.0610169 C18.3228357,33.9979856 18.3407688,33.9362487 18.3745763,33.8830508 C18.4113455,33.8253968 18.4636292,33.7792815 18.5254237,33.75 C18.5978746,33.7154768 18.6773883,33.6983553 18.7576271,33.7 C18.8246306,33.6989465 18.8913479,33.7089684 18.9550847,33.729661 C19.0075834,33.7478815 19.0557615,33.7767307 19.0966102,33.8144068 C19.132736,33.8463588 19.1616279,33.8856518 19.1813559,33.929661 C19.1993482,33.9731913 19.2085642,34.0198471 19.2084746,34.0669492 C19.2092671,34.1255045 19.1927581,34.1829911 19.1610169,34.2322034 C19.1250822,34.2838258 19.0759003,34.3248107 19.0186441,34.3508475 C19.0682007,34.3699433 19.113438,34.3987569 19.1516949,34.4355932 C19.1865305,34.4679069 19.2137414,34.5075653 19.2313559,34.5516949 C19.2497543,34.5989528 19.2589587,34.6492894 19.2584746,34.7 C19.2592355,34.7756616 19.239309,34.8500931 19.2008475,34.9152542 C19.1605174,34.9811969 19.101532,35.0336939 19.0313559,35.0661017 C18.9494025,35.104168 18.8598358,35.1230088 18.7694915,35.1211864 C18.6771709,35.1237398 18.5855125,35.1048861 18.5016949,35.0661017 C18.4313784,35.0343155 18.3723018,34.9820327 18.3322034,34.9161017 C18.2939052,34.8512203 18.2742573,34.7770274 18.2754237,34.7016949 C18.266966,34.5448561 18.3650298,34.4019333 18.5144068,34.3533898 C18.3906165,34.3087143 18.3107294,34.188195 18.3177966,34.0567797 L18.3228814,34.0610169 Z M19.0008475,34.6855932 C19.001916,34.6407471 18.9914086,34.5963825 18.970339,34.5567797 C18.9512862,34.5206289 18.921744,34.4910867 18.8855932,34.4720339 C18.8479588,34.4523915 18.8060049,34.4424858 18.7635593,34.4432203 C18.7030657,34.4416432 18.6445675,34.46492 18.6016949,34.5076271 C18.55634,34.55571 18.5330103,34.6204806 18.5372881,34.6864407 C18.5363009,34.7315485 18.5467993,34.7761667 18.5677966,34.8161017 C18.5876724,34.8516378 18.6170062,34.8809717 18.6525424,34.9008475 C18.6883306,34.9215652 18.728987,34.9323874 18.770339,34.9322034 C18.8122394,34.9324849 18.8534671,34.9216663 18.8898305,34.9008475 C18.9254485,34.88108 18.9548088,34.8517196 18.9745763,34.8161017 C18.9926481,34.7736366 18.9993652,34.7272015 18.9940678,34.6813559 L19.0008475,34.6855932 Z M18.7652542,33.8805085 C18.7119065,33.8780027 18.6599531,33.8979848 18.6220339,33.9355932 C18.5856028,33.9735199 18.5660431,34.0245584 18.5677966,34.0771186 C18.5665712,34.1276707 18.5869086,34.1763573 18.6237288,34.2110169 C18.6627488,34.2466063 18.7141713,34.2654713 18.7669492,34.2635593 C18.7943971,34.2641142 18.8217056,34.2595149 18.8474576,34.25 C18.870636,34.2410829 18.8919152,34.2278554 18.9101695,34.2110169 C18.9276113,34.1940519 18.9411959,34.1735304 18.95,34.1508475 C18.9724807,34.0936257 18.9684461,34.0293833 18.9389831,33.9754237 C18.9229646,33.9457837 18.898476,33.9215902 18.8686441,33.9059322 C18.8354657,33.8858237 18.797264,33.8755387 18.7584746,33.8762712 L18.7652542,33.8805085 Z M20.129661,34.4737288 C20.09171,34.5201512 20.0443387,34.5579905 19.990678,34.5847458 C19.9378073,34.610065 19.8798016,34.6228263 19.8211864,34.6220339 C19.7078093,34.6224818 19.5995001,34.5750966 19.5228814,34.4915254 C19.4857177,34.4493365 19.4569539,34.4004379 19.4381356,34.3474576 C19.4181391,34.2931775 19.4078133,34.2358121 19.4076269,34.1779661 C19.4075693,34.1148326 19.4190577,34.0522207 19.4415254,33.9932203 C19.485016,33.8777172 19.5746973,33.7855788 19.6889831,33.7389831 C19.7502978,33.7140133 19.8160056,33.701621 19.8822034,33.7025424 C19.9569421,33.701386 20.0310166,33.7167217 20.0991525,33.7474576 C20.162212,33.7763596 20.2172115,33.820301 20.259322,33.8754237 C20.3062576,33.9390984 20.3402337,34.0113694 20.359322,34.0881356 C20.3835198,34.1831004 20.3952007,34.2808209 20.3940678,34.3788136 C20.3957269,34.4864355 20.3834787,34.593821 20.3576271,34.6983051 C20.3372211,34.7817182 20.3006554,34.86032 20.25,34.929661 C20.2062157,34.9898345 20.147906,35.03794 20.0805085,35.0694915 C20.0104917,35.1009745 19.9343846,35.1166011 19.8576271,35.1152542 C19.783996,35.1171602 19.7110025,35.1011656 19.6449153,35.0686441 C19.5898449,35.0421669 19.5423364,35.0022365 19.5067797,34.9525424 C19.4781227,34.9139382 19.4618684,34.8675396 19.4601695,34.8194915 C19.4601009,34.7929088 19.4704437,34.767356 19.4889831,34.7483051 C19.5084635,34.7281274 19.5355222,34.717058 19.5635593,34.7177966 C19.5902018,34.7174193 19.6162893,34.7254234 19.6381356,34.740678 C19.6618259,34.7578778 19.6793558,34.7822413 19.6881356,34.8101695 C19.7010646,34.84678 19.7250523,34.8784674 19.7567797,34.9008475 C19.7883494,34.9236176 19.8263301,34.9357833 19.8652542,34.9355932 C19.9010612,34.9356643 19.9362136,34.9259974 19.9669492,34.9076271 C20.0008982,34.8889835 20.0299416,34.862554 20.0516949,34.8305085 C20.105276,34.7177263 20.1297498,34.593318 20.1228814,34.4686441 L20.129661,34.4737288 Z M20.1076271,34.1855932 C20.1078291,34.1454278 20.1021182,34.1054514 20.090678,34.0669492 C20.0800065,34.0331838 20.0633581,34.0016092 20.0415254,33.9737288 C20.0209211,33.9479028 19.9952543,33.9265619 19.9661017,33.9110169 C19.9364497,33.8959883 19.9035774,33.8884247 19.870339,33.8889831 C19.8105565,33.8889823 19.7542991,33.9172682 19.7186441,33.9652542 C19.6747943,34.0237311 19.6526263,34.0956276 19.6559322,34.1686441 C19.6523373,34.2406535 19.6745768,34.3115796 19.7186441,34.3686441 C19.7568513,34.41651 19.8150317,34.4440362 19.8762712,34.4432203 C19.9153323,34.4431104 19.9536564,34.4325786 19.9872881,34.4127119 C20.0226984,34.3904406 20.0518614,34.3595278 20.0720339,34.3228814 C20.0942452,34.2788708 20.104198,34.2296922 20.1008475,34.1805085 L20.1076271,34.1855932 Z M21.3847458,33.9440678 L20.9322034,33.9440678 L20.8788136,34.25 C20.9537327,34.2058199 21.0385031,34.1810587 21.1254237,34.1779661 C21.1836662,34.1773274 21.2413987,34.1888739 21.2949153,34.2118644 C21.346499,34.2341952 21.3933742,34.2661163 21.4330508,34.3059322 C21.4730557,34.3465772 21.5047237,34.3946551 21.5262712,34.4474576 C21.5492052,34.5033684 21.5607304,34.5632998 21.5601695,34.6237288 C21.5614577,34.7106295 21.5404503,34.7964099 21.4991525,34.8728814 C21.458081,34.9477222 21.3966778,35.0094192 21.3220339,35.0508475 C21.1522195,35.1362327 20.9520178,35.1362327 20.7822034,35.0508475 C20.7202186,35.0177907 20.6685947,34.9682201 20.6330508,34.9076271 C20.6068895,34.8651297 20.5917429,34.8167772 20.5889831,34.7669492 C20.589626,34.7406763 20.6005857,34.7157126 20.6194915,34.6974576 C20.6392433,34.6758556 20.6673454,34.6638118 20.6966102,34.6644068 C20.7516264,34.6659824 20.7992844,34.7030117 20.8144068,34.7559322 C20.8364955,34.8074697 20.871526,34.8524255 20.9161017,34.8864407 C20.9577075,34.9167399 21.0078527,34.9330593 21.059322,34.9330508 C21.1049181,34.9340507 21.1496777,34.9207118 21.1872881,34.8949153 C21.2248615,34.869286 21.2542777,34.8333983 21.2720339,34.7915254 C21.2927228,34.7442809 21.3028456,34.6930885 21.3016949,34.6415254 C21.303358,34.5880128 21.2923223,34.5348672 21.2694915,34.4864407 C21.2510789,34.4470087 21.2216458,34.4137494 21.1847458,34.390678 C21.1483824,34.3698592 21.1071546,34.3590405 21.0652542,34.359322 C21.0254696,34.3564447 20.9855899,34.3634309 20.9491525,34.379661 C20.9143218,34.4002806 20.8809135,34.4232134 20.8491525,34.4483051 C20.8189314,34.4756319 20.781085,34.4930767 20.740678,34.4983051 C20.709004,34.4989505 20.6784234,34.4867182 20.6559322,34.4644068 C20.6337407,34.445579 20.6207648,34.4180823 20.620339,34.3889831 C20.620339,34.3889831 20.620339,34.3644068 20.6305085,34.3245763 L20.7101695,33.8728814 C20.7138347,33.8294425 20.7310249,33.7882455 20.759322,33.7550847 C20.7917981,33.7276679 20.8339695,33.7145275 20.8762712,33.7186441 L21.3737288,33.7186441 C21.4720339,33.7186441 21.5211864,33.7559322 21.5211864,33.8305085 C21.5223304,33.8613327 21.5088146,33.8908788 21.4847458,33.9101695 C21.4536396,33.9320134 21.4158384,33.9422137 21.3779661,33.9389831 L21.3847458,33.9440678 Z"></path>
            </g>
        </g>
    </g>
</svg>